<svg xmlns="http://www.w3.org/2000/svg" xmlns:xlink="http://www.w3.org/1999/xlink" width="200" zoomAndPan="magnify" viewBox="0 0 150 60" height="80" preserveAspectRatio="xMidYMid meet" version="1.0"><defs><g/></defs><g fill="#ffffff" fill-opacity="1"><g transform="translate(4.122402, 21.597749)"><g><path d="M 17.5625 -11.074219 L 17.5625 -11.746094 L 11.980469 -11.746094 L 9.109375 -4.234375 L 6.015625 -11.746094 L 0.4375 -11.746094 L 0.4375 -11.074219 L 2.035156 -11.074219 L 2.035156 -1.546875 C 2.035156 -0.757812 0.757812 -0.671875 0.757812 -0.671875 L 0.4375 -0.671875 L 0.4375 0.015625 L 4.605469 0.015625 L 4.605469 -0.671875 L 4.21875 -0.671875 C 4.21875 -0.671875 2.941406 -0.757812 2.941406 -1.546875 L 2.941406 -9.628906 L 6.957031 0 L 8.402344 0 L 11.980469 -9.394531 L 11.980469 -0.671875 L 10.367188 -0.671875 L 10.367188 0 L 17.5625 0 L 17.5625 -0.671875 L 15.964844 -0.671875 L 15.964844 -11.074219 Z M 7.679688 -0.453125 L 3.226562 -11.074219 L 4.101562 -11.074219 L 8.050781 -1.445312 Z M 13.761719 -0.671875 L 12.871094 -0.671875 L 12.871094 -11.074219 L 13.761719 -11.074219 Z M 13.761719 -0.671875 "/></g></g></g><g fill="#ffffff" fill-opacity="1"><g transform="translate(22.136873, 21.597749)"><g><path d="M 15.308594 -11.074219 L 15.308594 -11.746094 L 9.242188 -11.746094 L 9.242188 -11.074219 L 10.21875 -11.074219 L 10.21875 -5.511719 C 10.21875 -2.804688 9.257812 -0.621094 7.949219 -0.621094 C 6.621094 -0.621094 5.527344 -2.804688 5.527344 -5.511719 L 5.527344 -11.074219 L 6.738281 -11.074219 L 6.738281 -11.746094 L 0.4375 -11.746094 L 0.4375 -11.074219 L 1.546875 -11.074219 L 1.546875 -5.511719 C 1.546875 -2.269531 4.46875 0.371094 7.949219 0.371094 C 11.425781 0.371094 14.199219 -2.269531 14.199219 -5.511719 L 14.199219 -11.074219 Z M 15.308594 -11.074219 "/></g></g></g><g fill="#ffffff" fill-opacity="1"><g transform="translate(37.899527, 21.597749)"><g><path d="M 12.402344 -4.875 C 12.402344 -4.875 10.605469 -0.671875 8.4375 -0.671875 L 6.015625 -0.671875 L 6.015625 -11.074219 L 7.628906 -11.074219 L 7.628906 -11.746094 L 0.4375 -11.746094 L 0.4375 -11.074219 L 2.035156 -11.074219 L 2.035156 -0.671875 L 0.4375 -0.671875 L 0.4375 0 L 11.375 0 L 13.109375 -4.875 Z M 12.402344 -4.875 "/></g></g></g><g fill="#ffffff" fill-opacity="1"><g transform="translate(51.460797, 21.597749)"><g><path d="M 12.90625 -11.746094 L 1.914062 -11.746094 C 1.898438 -11.746094 1.898438 -11.746094 1.898438 -11.746094 L 0.167969 -6.871094 L 0.875 -6.871094 C 0.875 -6.871094 2.671875 -11.074219 4.839844 -11.074219 L 5.242188 -11.074219 L 5.242188 -0.671875 L 3.648438 -0.671875 L 3.648438 0.015625 L 10.839844 0.015625 L 10.839844 -0.671875 L 9.226562 -0.671875 L 9.226562 -11.074219 L 9.964844 -11.074219 C 12.132812 -11.074219 13.929688 -6.871094 13.929688 -6.871094 L 14.636719 -6.871094 Z M 12.90625 -11.746094 "/></g></g></g><g fill="#ffffff" fill-opacity="1"><g transform="translate(66.282403, 21.597749)"><g><path d="M 7.628906 -11.074219 L 7.628906 -11.746094 L 0.4375 -11.746094 L 0.4375 -11.074219 L 2.035156 -11.074219 L 2.035156 -0.671875 L 0.4375 -0.671875 L 0.4375 0 L 7.628906 0 L 7.628906 -0.671875 L 6.015625 -0.671875 L 6.015625 -11.074219 Z M 7.628906 -11.074219 "/></g></g></g><g fill="#ffffff" fill-opacity="1"><g transform="translate(74.34859, 21.597749)"><g><path d="M 11.207031 -11.746094 L 11.207031 -11.074219 L 11.410156 -11.074219 C 12.652344 -11.007812 12.234375 -9.796875 12.234375 -9.761719 L 8.972656 -2.707031 L 5.140625 -11.074219 L 6.4375 -11.074219 L 6.4375 -11.746094 L 0.015625 -11.746094 L 0.015625 -11.074219 L 1.160156 -11.074219 L 6.269531 0 L 8.621094 0 L 13.359375 -10.265625 C 13.359375 -10.265625 13.761719 -10.988281 14.871094 -11.074219 L 14.871094 -11.746094 Z M 11.207031 -11.746094 "/></g></g></g><g fill="#ffffff" fill-opacity="1"><g transform="translate(89.25422, 21.597749)"><g><path d="M 9.226562 -0.671875 L 6.015625 -0.671875 L 6.015625 -5.863281 L 7.109375 -5.863281 C 8.417969 -5.714844 8.554688 -3.511719 8.554688 -3.511719 L 9.242188 -3.511719 L 9.242188 -8.941406 L 8.554688 -8.941406 C 8.554688 -8.941406 8.402344 -6.554688 6.941406 -6.554688 L 6.015625 -6.554688 L 6.015625 -11.074219 L 9.226562 -11.074219 C 11.410156 -11.074219 13.191406 -6.871094 13.191406 -6.871094 L 13.914062 -6.871094 L 12.183594 -11.746094 L 0.4375 -11.746094 L 0.4375 -11.074219 L 2.035156 -11.074219 L 2.035156 -0.671875 L 0.4375 -0.671875 L 0.4375 0.015625 L 12.183594 0.015625 L 13.914062 -4.875 L 13.191406 -4.875 C 13.191406 -4.875 11.410156 -0.671875 9.226562 -0.671875 Z M 9.226562 -0.671875 "/></g></g></g><g fill="#ffffff" fill-opacity="1"><g transform="translate(103.605301, 21.597749)"><g><path d="M 13.242188 -0.671875 L 10.554688 -4.6875 C 12 -5.109375 13.058594 -6.4375 13.058594 -8.015625 L 13.058594 -8.300781 C 13.058594 -10.21875 11.511719 -11.761719 9.59375 -11.761719 L 0.4375 -11.761719 L 0.4375 -11.074219 L 2.035156 -11.074219 L 2.035156 -0.671875 L 0.4375 -0.671875 L 0.4375 0 L 7.109375 0 L 7.125 -0.671875 L 6.015625 -0.671875 L 6.015625 -4.554688 L 6.03125 -4.554688 L 9.109375 0.015625 L 9.109375 0 L 14.148438 0 L 14.148438 -0.671875 Z M 7.527344 -11.074219 C 8.738281 -11.074219 9.730469 -9.882812 9.730469 -8.285156 L 9.730469 -8.050781 C 9.730469 -6.4375 8.921875 -5.242188 7.546875 -5.242188 L 6.015625 -5.242188 L 6.015625 -11.074219 Z M 7.527344 -11.074219 "/></g></g></g><g fill="#ffffff" fill-opacity="1"><g transform="translate(118.20844, 21.597749)"><g><path d="M 5.460938 -7.863281 C 2.101562 -8.417969 2.351562 -11.292969 6.183594 -11.023438 C 8.6875 -10.839844 10.285156 -9.496094 11.277344 -7.746094 L 12.300781 -8.101562 L 11.058594 -12.082031 L 10.132812 -12.082031 C 10.132812 -12.082031 10.605469 -10.351562 9.980469 -10.789062 C 9.074219 -11.410156 6.972656 -12.46875 3.714844 -11.710938 C 2.082031 -11.257812 0.6875 -10.21875 0.6875 -8.148438 C 0.6875 -5.277344 4.183594 -4.539062 5.445312 -4.371094 C 13.007812 -3.394531 10.265625 -0.300781 6.671875 -0.519531 C 3.914062 -0.671875 2.371094 -1.933594 1.730469 -3.628906 L 0.4375 -3.160156 C 0.4375 -3.160156 1.359375 0.335938 6.992188 0.320312 C 6.992188 0.335938 6.992188 0.335938 6.972656 0.335938 C 11.039062 0.335938 13.007812 -1.109375 13.007812 -3.394531 C 13.007812 -6.636719 8.570312 -7.359375 5.460938 -7.863281 Z M 5.460938 -7.863281 "/></g></g></g><g fill="#ffffff" fill-opacity="1"><g transform="translate(131.652079, 21.597749)"><g><path d="M 7.109375 -12.132812 C 3.410156 -12.132812 0.4375 -9.34375 0.4375 -5.898438 C 0.4375 -2.453125 3.410156 0.335938 7.109375 0.335938 C 10.789062 0.335938 13.78125 -2.453125 13.78125 -5.898438 C 13.78125 -9.34375 10.789062 -12.132812 7.109375 -12.132812 Z M 7.109375 -0.707031 C 5.695312 -0.707031 4.570312 -3.023438 4.570312 -5.898438 C 4.570312 -8.753906 5.695312 -11.074219 7.109375 -11.074219 C 8.503906 -11.074219 9.644531 -8.753906 9.644531 -5.898438 C 9.644531 -3.023438 8.503906 -0.707031 7.109375 -0.707031 Z M 7.109375 -0.707031 "/></g></g></g><g fill="#ffffff" fill-opacity="1"><g transform="translate(16.496032, 44.703944)"><g><path d="M 6.921875 -0.855469 C 5.511719 -0.855469 4.386719 -3.175781 4.386719 -6.050781 C 4.386719 -8.90625 5.511719 -11.226562 6.921875 -11.226562 C 9.394531 -11.226562 11.496094 -9.898438 12.367188 -7.964844 L 13.394531 -8.316406 L 12.132812 -12.300781 L 11.207031 -12.300781 C 11.207031 -12.300781 11.679688 -10.570312 11.074219 -11.007812 C 9.914062 -11.796875 8.46875 -12.285156 6.921875 -12.285156 C 6.871094 -12.285156 6.824219 -12.265625 6.773438 -12.265625 C 3.160156 -12.199219 0.253906 -9.445312 0.253906 -6.050781 C 0.253906 -2.65625 3.160156 0.101562 6.773438 0.183594 C 6.824219 0.183594 6.871094 0.183594 6.921875 0.183594 C 9.847656 0.183594 12.351562 -1.480469 13.34375 -3.816406 L 12.25 -4.269531 C 11.445312 -2.25 9.460938 -0.855469 6.921875 -0.855469 Z M 6.921875 -0.855469 "/></g></g></g><g fill="#ffffff" fill-opacity="1"><g transform="translate(30.342967, 44.703944)"><g><path d="M 15.308594 -11.074219 L 15.308594 -11.746094 L 9.242188 -11.746094 L 9.242188 -11.074219 L 10.21875 -11.074219 L 10.21875 -5.511719 C 10.21875 -2.804688 9.257812 -0.621094 7.949219 -0.621094 C 6.621094 -0.621094 5.527344 -2.804688 5.527344 -5.511719 L 5.527344 -11.074219 L 6.738281 -11.074219 L 6.738281 -11.746094 L 0.4375 -11.746094 L 0.4375 -11.074219 L 1.546875 -11.074219 L 1.546875 -5.511719 C 1.546875 -2.269531 4.46875 0.371094 7.949219 0.371094 C 11.425781 0.371094 14.199219 -2.269531 14.199219 -5.511719 L 14.199219 -11.074219 Z M 15.308594 -11.074219 "/></g></g></g><g fill="#ffffff" fill-opacity="1"><g transform="translate(46.10562, 44.703944)"><g><path d="M 12.402344 -4.875 C 12.402344 -4.875 10.605469 -0.671875 8.4375 -0.671875 L 6.015625 -0.671875 L 6.015625 -11.074219 L 7.628906 -11.074219 L 7.628906 -11.746094 L 0.4375 -11.746094 L 0.4375 -11.074219 L 2.035156 -11.074219 L 2.035156 -0.671875 L 0.4375 -0.671875 L 0.4375 0 L 11.375 0 L 13.109375 -4.875 Z M 12.402344 -4.875 "/></g></g></g><g fill="#ffffff" fill-opacity="1"><g transform="translate(59.666891, 44.703944)"><g><path d="M 7.628906 -11.074219 L 7.628906 -11.746094 L 0.4375 -11.746094 L 0.4375 -11.074219 L 2.035156 -11.074219 L 2.035156 -0.671875 L 0.4375 -0.671875 L 0.4375 0 L 7.628906 0 L 7.628906 -0.671875 L 6.015625 -0.671875 L 6.015625 -11.074219 Z M 7.628906 -11.074219 "/></g></g></g><g fill="#ffffff" fill-opacity="1"><g transform="translate(67.733078, 44.703944)"><g><path d="M 11.929688 -10.199219 C 11.929688 -10.988281 13.207031 -11.074219 13.207031 -11.074219 L 13.527344 -11.074219 L 13.527344 -11.746094 L 9.109375 -11.746094 L 9.109375 -11.074219 L 9.746094 -11.074219 C 9.746094 -11.074219 11.023438 -10.988281 11.023438 -10.199219 L 11.023438 -2.957031 L 4.6875 -11.746094 L 0.453125 -11.746094 L 0.453125 -11.074219 L 2.351562 -8.636719 L 2.351562 -1.546875 C 2.351562 -0.757812 1.074219 -0.671875 1.074219 -0.671875 L 0.4375 -0.671875 L 0.4375 0 L 4.855469 0 L 4.855469 -0.671875 L 4.539062 -0.671875 C 4.539062 -0.671875 3.261719 -0.757812 3.261719 -1.546875 L 3.261719 -7.460938 L 9.058594 0.015625 L 13.527344 0.015625 L 13.527344 -0.671875 L 13.207031 -0.671875 C 13.207031 -0.671875 11.929688 -0.757812 11.929688 -1.546875 Z M 11.929688 -10.199219 "/></g></g></g><g fill="#ffffff" fill-opacity="1"><g transform="translate(81.714455, 44.703944)"><g><path d="M 13.730469 -0.671875 L 8.621094 -11.746094 L 4.167969 -11.746094 L 4.167969 -11.074219 L 5.949219 -11.074219 L 1.527344 -1.480469 C 1.527344 -1.480469 1.125 -0.757812 0.015625 -0.671875 L 0.015625 0.015625 L 3.679688 0.015625 L 3.679688 -0.671875 L 3.460938 -0.671875 C 2.234375 -0.738281 2.65625 -1.984375 2.65625 -1.984375 L 3.648438 -4.117188 L 8.167969 -4.117188 L 9.746094 -0.671875 L 8.453125 -0.671875 L 8.453125 0.015625 L 14.871094 0.015625 L 14.871094 -0.671875 Z M 4 -4.875 L 5.914062 -9.039062 L 7.8125 -4.875 Z M 4 -4.875 "/></g></g></g><g fill="#ffffff" fill-opacity="1"><g transform="translate(96.620085, 44.703944)"><g><path d="M 13.242188 -0.671875 L 10.554688 -4.6875 C 12 -5.109375 13.058594 -6.4375 13.058594 -8.015625 L 13.058594 -8.300781 C 13.058594 -10.21875 11.511719 -11.761719 9.59375 -11.761719 L 0.4375 -11.761719 L 0.4375 -11.074219 L 2.035156 -11.074219 L 2.035156 -0.671875 L 0.4375 -0.671875 L 0.4375 0 L 7.109375 0 L 7.125 -0.671875 L 6.015625 -0.671875 L 6.015625 -4.554688 L 6.03125 -4.554688 L 9.109375 0.015625 L 9.109375 0 L 14.148438 0 L 14.148438 -0.671875 Z M 7.527344 -11.074219 C 8.738281 -11.074219 9.730469 -9.882812 9.730469 -8.285156 L 9.730469 -8.050781 C 9.730469 -6.4375 8.921875 -5.242188 7.546875 -5.242188 L 6.015625 -5.242188 L 6.015625 -11.074219 Z M 7.527344 -11.074219 "/></g></g></g><g fill="#ffffff" fill-opacity="1"><g transform="translate(111.223224, 44.703944)"><g><path d="M 7.628906 -11.074219 L 7.628906 -11.746094 L 0.4375 -11.746094 L 0.4375 -11.074219 L 2.035156 -11.074219 L 2.035156 -0.671875 L 0.4375 -0.671875 L 0.4375 0 L 7.628906 0 L 7.628906 -0.671875 L 6.015625 -0.671875 L 6.015625 -11.074219 Z M 7.628906 -11.074219 "/></g></g></g><g fill="#ffffff" fill-opacity="1"><g transform="translate(119.289411, 44.703944)"><g><path d="M 7.109375 -12.132812 C 3.410156 -12.132812 0.4375 -9.34375 0.4375 -5.898438 C 0.4375 -2.453125 3.410156 0.335938 7.109375 0.335938 C 10.789062 0.335938 13.78125 -2.453125 13.78125 -5.898438 C 13.78125 -9.34375 10.789062 -12.132812 7.109375 -12.132812 Z M 7.109375 -0.707031 C 5.695312 -0.707031 4.570312 -3.023438 4.570312 -5.898438 C 4.570312 -8.753906 5.695312 -11.074219 7.109375 -11.074219 C 8.503906 -11.074219 9.644531 -8.753906 9.644531 -5.898438 C 9.644531 -3.023438 8.503906 -0.707031 7.109375 -0.707031 Z M 7.109375 -0.707031 "/></g></g></g></svg>