<svg xmlns="http://www.w3.org/2000/svg" xmlns:xlink="http://www.w3.org/1999/xlink" width="200" zoomAndPan="magnify" viewBox="0 0 150 60" height="80" preserveAspectRatio="xMidYMid meet" version="1.0"><defs><g/></defs><g fill="#000000" fill-opacity="1"><g transform="translate(0, 32.015071)"><g><path d="M 18.578125 -15.78125 C 20.003906 -15.78125 21.203125 -15.800781 22.171875 -15.84375 L 22.0625 -15.390625 C 21.507812 -15.359375 21.101562 -15.296875 20.84375 -15.203125 C 20.582031 -15.117188 20.375 -14.945312 20.21875 -14.6875 C 20.0625 -14.4375 19.90625 -14.03125 19.75 -13.46875 L 16.796875 -2.375 C 16.679688 -1.863281 16.625 -1.503906 16.625 -1.296875 C 16.625 -0.972656 16.734375 -0.757812 16.953125 -0.65625 C 17.171875 -0.550781 17.5625 -0.484375 18.125 -0.453125 L 18.03125 0 C 17.09375 -0.0390625 15.898438 -0.0625 14.453125 -0.0625 C 12.828125 -0.0625 11.632812 -0.0390625 10.875 0 L 10.96875 -0.453125 C 11.519531 -0.484375 11.925781 -0.539062 12.1875 -0.625 C 12.445312 -0.71875 12.65625 -0.890625 12.8125 -1.140625 C 12.96875 -1.390625 13.117188 -1.800781 13.265625 -2.375 L 16.515625 -14.4375 L 7.234375 0.109375 L 6.734375 0.109375 L 4.921875 -13.625 L 2.109375 -2.890625 C 1.984375 -2.453125 1.921875 -2.085938 1.921875 -1.796875 C 1.921875 -1.359375 2.0625 -1.023438 2.34375 -0.796875 C 2.632812 -0.578125 3.113281 -0.460938 3.78125 -0.453125 L 3.6875 0 C 3.15625 -0.0390625 2.320312 -0.0625 1.1875 -0.0625 C 0.289062 -0.0625 -0.414062 -0.0390625 -0.9375 0 L -0.828125 -0.453125 C -0.109375 -0.484375 0.421875 -0.695312 0.765625 -1.09375 C 1.117188 -1.5 1.394531 -2.097656 1.59375 -2.890625 L 4.4375 -13.46875 C 4.550781 -13.976562 4.609375 -14.335938 4.609375 -14.546875 C 4.609375 -14.867188 4.5 -15.082031 4.28125 -15.1875 C 4.0625 -15.289062 3.671875 -15.359375 3.109375 -15.390625 L 3.21875 -15.84375 C 3.894531 -15.800781 4.914062 -15.78125 6.28125 -15.78125 C 7.0625 -15.78125 7.734375 -15.800781 8.296875 -15.84375 L 9.578125 -4.40625 L 16.828125 -15.78125 Z M 18.578125 -15.78125 "/></g></g></g><g fill="#000000" fill-opacity="1"><g transform="translate(20.514255, 32.015071)"><g><path d="M 14.390625 -12.171875 C 14.628906 -13.054688 14.75 -13.691406 14.75 -14.078125 C 14.75 -14.503906 14.617188 -14.8125 14.359375 -15 C 14.109375 -15.1875 13.671875 -15.316406 13.046875 -15.390625 L 13.15625 -15.84375 C 13.707031 -15.800781 14.503906 -15.78125 15.546875 -15.78125 C 16.367188 -15.78125 17.023438 -15.800781 17.515625 -15.84375 L 17.40625 -15.390625 C 16.894531 -15.316406 16.5 -15.191406 16.21875 -15.015625 C 15.9375 -14.835938 15.703125 -14.550781 15.515625 -14.15625 C 15.328125 -13.769531 15.140625 -13.195312 14.953125 -12.4375 L 13.421875 -6.515625 C 12.890625 -4.453125 12.160156 -2.867188 11.234375 -1.765625 C 10.679688 -1.128906 10.003906 -0.625 9.203125 -0.25 C 8.410156 0.125 7.554688 0.3125 6.640625 0.3125 C 5.554688 0.3125 4.644531 0.160156 3.90625 -0.140625 C 3.175781 -0.453125 2.632812 -0.890625 2.28125 -1.453125 C 1.875 -2.035156 1.671875 -2.726562 1.671875 -3.53125 C 1.671875 -4.25 1.835938 -5.21875 2.171875 -6.4375 L 4.03125 -13.46875 C 4.144531 -13.976562 4.203125 -14.335938 4.203125 -14.546875 C 4.203125 -14.867188 4.09375 -15.082031 3.875 -15.1875 C 3.664062 -15.289062 3.273438 -15.359375 2.703125 -15.390625 L 2.84375 -15.84375 C 3.601562 -15.800781 4.832031 -15.78125 6.53125 -15.78125 C 7.914062 -15.78125 9.070312 -15.800781 10 -15.84375 L 9.875 -15.390625 C 9.320312 -15.359375 8.910156 -15.296875 8.640625 -15.203125 C 8.378906 -15.117188 8.171875 -14.945312 8.015625 -14.6875 C 7.859375 -14.4375 7.707031 -14.03125 7.5625 -13.46875 L 5.59375 -6.0625 C 5.238281 -4.75 5.0625 -3.660156 5.0625 -2.796875 C 5.0625 -2.023438 5.222656 -1.441406 5.546875 -1.046875 C 5.878906 -0.660156 6.390625 -0.46875 7.078125 -0.46875 C 8.640625 -0.46875 9.867188 -0.972656 10.765625 -1.984375 C 11.671875 -3.003906 12.363281 -4.429688 12.84375 -6.265625 Z M 14.390625 -12.171875 "/></g></g></g><g fill="#000000" fill-opacity="1"><g transform="translate(36.039767, 32.015071)"><g><path d="M 12.578125 -4.703125 C 12.421875 -4.296875 12.238281 -3.679688 12.03125 -2.859375 C 11.800781 -2.023438 11.601562 -1.070312 11.4375 0 C 10.414062 -0.0390625 8.722656 -0.0625 6.359375 -0.0625 C 3.109375 -0.0625 0.664062 -0.0390625 -0.96875 0 L -0.84375 -0.453125 C -0.3125 -0.484375 0.0820312 -0.539062 0.34375 -0.625 C 0.601562 -0.71875 0.816406 -0.890625 0.984375 -1.140625 C 1.148438 -1.390625 1.304688 -1.800781 1.453125 -2.375 L 4.40625 -13.46875 C 4.53125 -13.976562 4.59375 -14.335938 4.59375 -14.546875 C 4.59375 -14.867188 4.484375 -15.082031 4.265625 -15.1875 C 4.046875 -15.289062 3.65625 -15.359375 3.09375 -15.390625 L 3.203125 -15.84375 C 3.992188 -15.800781 5.222656 -15.78125 6.890625 -15.78125 C 8.296875 -15.78125 9.457031 -15.800781 10.375 -15.84375 L 10.265625 -15.390625 C 9.710938 -15.359375 9.304688 -15.296875 9.046875 -15.203125 C 8.785156 -15.117188 8.570312 -14.945312 8.40625 -14.6875 C 8.25 -14.4375 8.09375 -14.03125 7.9375 -13.46875 L 4.984375 -2.375 C 4.847656 -1.800781 4.78125 -1.4375 4.78125 -1.28125 C 4.78125 -0.96875 4.890625 -0.757812 5.109375 -0.65625 C 5.328125 -0.5625 5.71875 -0.515625 6.28125 -0.515625 L 7.1875 -0.515625 C 8.238281 -0.515625 9.164062 -0.835938 9.96875 -1.484375 C 10.78125 -2.140625 11.484375 -3.210938 12.078125 -4.703125 Z M 12.578125 -4.703125 "/></g></g></g><g fill="#000000" fill-opacity="1"><g transform="translate(49.574259, 32.015071)"><g><path d="M 17.46875 -19.203125 C 18 -19.203125 18.421875 -19.046875 18.734375 -18.734375 C 19.046875 -18.429688 19.203125 -18.0625 19.203125 -17.625 C 19.203125 -16.71875 18.6875 -16.007812 17.65625 -15.5 C 16.75 -15.070312 15.503906 -14.859375 13.921875 -14.859375 C 13.648438 -14.859375 13.21875 -14.875 12.625 -14.90625 L 9.328125 -2.59375 C 9.210938 -2.144531 9.15625 -1.800781 9.15625 -1.5625 C 9.15625 -1.175781 9.289062 -0.898438 9.5625 -0.734375 C 9.84375 -0.578125 10.328125 -0.484375 11.015625 -0.453125 L 10.921875 0 C 9.984375 -0.0390625 8.601562 -0.0625 6.78125 -0.0625 C 5 -0.0625 3.6875 -0.0390625 2.84375 0 L 2.9375 -0.453125 C 3.570312 -0.484375 4.0625 -0.5625 4.40625 -0.6875 C 4.757812 -0.8125 5.035156 -1.019531 5.234375 -1.3125 C 5.441406 -1.601562 5.617188 -2.03125 5.765625 -2.59375 L 9.15625 -15.234375 C 8.03125 -15.335938 7.132812 -15.390625 6.46875 -15.390625 C 5.226562 -15.390625 4.382812 -15.265625 3.9375 -15.015625 C 4.320312 -14.890625 4.640625 -14.664062 4.890625 -14.34375 C 5.148438 -14.03125 5.28125 -13.648438 5.28125 -13.203125 C 5.28125 -12.679688 5.113281 -12.238281 4.78125 -11.875 C 4.457031 -11.507812 4.039062 -11.328125 3.53125 -11.328125 C 3.039062 -11.328125 2.648438 -11.492188 2.359375 -11.828125 C 2.066406 -12.160156 1.921875 -12.582031 1.921875 -13.09375 C 1.921875 -13.507812 2.035156 -13.910156 2.265625 -14.296875 C 2.503906 -14.679688 2.875 -15.003906 3.375 -15.265625 C 4.101562 -15.617188 5.101562 -15.796875 6.375 -15.796875 C 7.363281 -15.796875 8.75 -15.707031 10.53125 -15.53125 C 12.175781 -15.375 13.375 -15.296875 14.125 -15.296875 C 15.125 -15.296875 15.910156 -15.394531 16.484375 -15.59375 C 16.265625 -15.800781 16.078125 -16.054688 15.921875 -16.359375 C 15.773438 -16.671875 15.703125 -17.003906 15.703125 -17.359375 C 15.703125 -17.898438 15.863281 -18.34375 16.1875 -18.6875 C 16.507812 -19.03125 16.9375 -19.203125 17.46875 -19.203125 Z M 17.46875 -19.203125 "/></g></g></g><g fill="#000000" fill-opacity="1"><g transform="translate(64.808943, 32.015071)"><g><path d="M 5.015625 -2.375 C 4.878906 -1.800781 4.8125 -1.4375 4.8125 -1.28125 C 4.8125 -0.96875 4.914062 -0.757812 5.125 -0.65625 C 5.34375 -0.550781 5.742188 -0.484375 6.328125 -0.453125 L 6.25 0 C 5.375 -0.0390625 4.15625 -0.0625 2.59375 -0.0625 C 1.03125 -0.0625 -0.140625 -0.0390625 -0.921875 0 L -0.8125 -0.453125 C -0.28125 -0.484375 0.113281 -0.539062 0.375 -0.625 C 0.632812 -0.71875 0.84375 -0.894531 1 -1.15625 C 1.15625 -1.414062 1.304688 -1.820312 1.453125 -2.375 L 4.40625 -13.46875 C 4.53125 -13.976562 4.59375 -14.335938 4.59375 -14.546875 C 4.59375 -14.867188 4.484375 -15.082031 4.265625 -15.1875 C 4.046875 -15.289062 3.65625 -15.359375 3.09375 -15.390625 L 3.203125 -15.84375 C 3.929688 -15.800781 5.101562 -15.78125 6.71875 -15.78125 C 8.1875 -15.78125 9.40625 -15.800781 10.375 -15.84375 L 10.265625 -15.390625 C 9.710938 -15.359375 9.304688 -15.296875 9.046875 -15.203125 C 8.785156 -15.117188 8.578125 -14.945312 8.421875 -14.6875 C 8.265625 -14.4375 8.113281 -14.03125 7.96875 -13.46875 Z M 5.015625 -2.375 "/></g></g></g><g fill="#000000" fill-opacity="1"><g transform="translate(73.533655, 32.015071)"><g><path d="M 15.78125 -15.78125 C 16.414062 -15.78125 16.972656 -15.800781 17.453125 -15.84375 L 17.34375 -15.390625 C 16.851562 -15.253906 16.410156 -15.019531 16.015625 -14.6875 C 15.617188 -14.351562 15.171875 -13.796875 14.671875 -13.015625 L 6.125 0.109375 L 5.578125 0.09375 L 4.984375 0.109375 L 3.21875 -13.96875 C 3.15625 -14.457031 3.007812 -14.8125 2.78125 -15.03125 C 2.550781 -15.257812 2.3125 -15.378906 2.0625 -15.390625 L 2.171875 -15.84375 C 2.929688 -15.800781 4.003906 -15.78125 5.390625 -15.78125 C 6.898438 -15.78125 8.039062 -15.800781 8.8125 -15.84375 L 8.703125 -15.390625 C 8.035156 -15.359375 7.566406 -15.253906 7.296875 -15.078125 C 7.023438 -14.910156 6.890625 -14.566406 6.890625 -14.046875 C 6.890625 -13.828125 6.894531 -13.648438 6.90625 -13.515625 L 8.03125 -3.609375 L 13.921875 -12.640625 C 14.367188 -13.328125 14.59375 -13.878906 14.59375 -14.296875 C 14.59375 -14.648438 14.4375 -14.910156 14.125 -15.078125 C 13.8125 -15.253906 13.347656 -15.359375 12.734375 -15.390625 L 12.84375 -15.84375 C 13.425781 -15.800781 14.40625 -15.78125 15.78125 -15.78125 Z M 15.78125 -15.78125 "/></g></g></g><g fill="#000000" fill-opacity="1"><g transform="translate(88.320919, 32.015071)"><g><path d="M 10.46875 -15.78125 C 12.59375 -15.78125 14.109375 -15.800781 15.015625 -15.84375 C 14.597656 -14.707031 14.3125 -13.828125 14.15625 -13.203125 C 14.082031 -12.867188 13.988281 -12.40625 13.875 -11.8125 L 13.375 -11.8125 C 13.394531 -12.007812 13.40625 -12.28125 13.40625 -12.625 C 13.40625 -13.625 13.21875 -14.320312 12.84375 -14.71875 C 12.46875 -15.125 11.828125 -15.328125 10.921875 -15.328125 L 10.21875 -15.328125 C 9.695312 -15.328125 9.304688 -15.285156 9.046875 -15.203125 C 8.785156 -15.117188 8.578125 -14.945312 8.421875 -14.6875 C 8.265625 -14.4375 8.113281 -14.03125 7.96875 -13.46875 L 6.5625 -8.1875 L 7.390625 -8.1875 C 8.128906 -8.1875 8.753906 -8.445312 9.265625 -8.96875 C 9.773438 -9.488281 10.171875 -10.125 10.453125 -10.875 L 10.96875 -10.875 C 10.675781 -10.019531 10.441406 -9.238281 10.265625 -8.53125 L 10.140625 -7.96875 C 9.960938 -7.257812 9.742188 -6.289062 9.484375 -5.0625 L 9 -5.0625 C 9.007812 -5.164062 9.015625 -5.328125 9.015625 -5.546875 C 9.015625 -7.003906 8.390625 -7.734375 7.140625 -7.734375 L 6.4375 -7.734375 L 5.015625 -2.375 C 4.878906 -1.90625 4.8125 -1.539062 4.8125 -1.28125 C 4.8125 -0.96875 4.914062 -0.757812 5.125 -0.65625 C 5.34375 -0.5625 5.726562 -0.515625 6.28125 -0.515625 L 7.109375 -0.515625 C 7.921875 -0.515625 8.601562 -0.632812 9.15625 -0.875 C 9.707031 -1.125 10.195312 -1.53125 10.625 -2.09375 C 11.0625 -2.664062 11.503906 -3.457031 11.953125 -4.46875 L 12.46875 -4.46875 C 12.300781 -4.039062 12.132812 -3.503906 11.96875 -2.859375 C 11.71875 -1.984375 11.523438 -1.03125 11.390625 0 C 10.378906 -0.0390625 8.6875 -0.0625 6.3125 -0.0625 C 3.09375 -0.0625 0.664062 -0.0390625 -0.96875 0 L -0.84375 -0.453125 C -0.3125 -0.484375 0.0820312 -0.539062 0.34375 -0.625 C 0.601562 -0.71875 0.816406 -0.890625 0.984375 -1.140625 C 1.148438 -1.390625 1.304688 -1.800781 1.453125 -2.375 L 4.40625 -13.46875 C 4.53125 -13.976562 4.59375 -14.335938 4.59375 -14.546875 C 4.59375 -14.867188 4.484375 -15.082031 4.265625 -15.1875 C 4.046875 -15.289062 3.65625 -15.359375 3.09375 -15.390625 L 3.203125 -15.84375 C 4.828125 -15.800781 7.25 -15.78125 10.46875 -15.78125 Z M 10.46875 -15.78125 "/></g></g></g><g fill="#000000" fill-opacity="1"><g transform="translate(102.325203, 32.015071)"><g><path d="M 14.65625 -2.703125 L 15.171875 -2.703125 L 15.078125 -2.421875 C 14.796875 -1.472656 14.382812 -0.78125 13.84375 -0.34375 C 13.3125 0.09375 12.582031 0.3125 11.65625 0.3125 C 10.75 0.3125 10.066406 0.117188 9.609375 -0.265625 C 9.148438 -0.648438 8.921875 -1.179688 8.921875 -1.859375 C 8.921875 -2.046875 8.929688 -2.1875 8.953125 -2.28125 L 9.28125 -4.828125 C 9.3125 -5.191406 9.328125 -5.441406 9.328125 -5.578125 C 9.328125 -6.253906 9.113281 -6.753906 8.6875 -7.078125 C 8.269531 -7.398438 7.507812 -7.578125 6.40625 -7.609375 L 5.015625 -2.375 C 4.859375 -1.851562 4.78125 -1.488281 4.78125 -1.28125 C 4.78125 -0.988281 4.890625 -0.78125 5.109375 -0.65625 C 5.335938 -0.53125 5.738281 -0.460938 6.3125 -0.453125 L 6.21875 0 C 5.320312 -0.0390625 4.160156 -0.0625 2.734375 -0.0625 C 1.078125 -0.0625 -0.144531 -0.0390625 -0.9375 0 L -0.84375 -0.453125 C -0.3125 -0.484375 0.0859375 -0.539062 0.359375 -0.625 C 0.628906 -0.71875 0.84375 -0.890625 1 -1.140625 C 1.15625 -1.390625 1.304688 -1.800781 1.453125 -2.375 L 4.390625 -13.46875 C 4.523438 -14.007812 4.59375 -14.359375 4.59375 -14.515625 C 4.59375 -14.816406 4.484375 -15.035156 4.265625 -15.171875 C 4.046875 -15.304688 3.65625 -15.378906 3.09375 -15.390625 L 3.203125 -15.84375 C 3.960938 -15.800781 5.085938 -15.78125 6.578125 -15.78125 L 8.5 -15.796875 C 8.84375 -15.804688 9.320312 -15.8125 9.9375 -15.8125 C 11.757812 -15.8125 13.101562 -15.554688 13.96875 -15.046875 C 14.84375 -14.546875 15.28125 -13.765625 15.28125 -12.703125 C 15.28125 -11.390625 14.6875 -10.289062 13.5 -9.40625 C 12.3125 -8.519531 10.710938 -7.960938 8.703125 -7.734375 C 10.054688 -7.609375 11.082031 -7.363281 11.78125 -7 C 12.488281 -6.644531 12.84375 -6.023438 12.84375 -5.140625 C 12.84375 -5.054688 12.828125 -4.894531 12.796875 -4.65625 L 12.484375 -2.34375 C 12.472656 -2.226562 12.46875 -2.066406 12.46875 -1.859375 C 12.46875 -1.140625 12.703125 -0.78125 13.171875 -0.78125 C 13.460938 -0.78125 13.710938 -0.910156 13.921875 -1.171875 C 14.128906 -1.429688 14.335938 -1.835938 14.546875 -2.390625 Z M 6.484375 -8.015625 L 6.671875 -8.015625 C 8.171875 -8.015625 9.378906 -8.457031 10.296875 -9.34375 C 11.222656 -10.226562 11.6875 -11.460938 11.6875 -13.046875 C 11.6875 -13.847656 11.515625 -14.4375 11.171875 -14.8125 C 10.828125 -15.195312 10.300781 -15.390625 9.59375 -15.390625 C 9.144531 -15.390625 8.8125 -15.289062 8.59375 -15.09375 C 8.382812 -14.894531 8.207031 -14.503906 8.0625 -13.921875 Z M 6.484375 -8.015625 "/></g></g></g><g fill="#000000" fill-opacity="1"><g transform="translate(118.231025, 32.015071)"><g><path d="M 13.875 -16 C 13.300781 -14.5625 12.859375 -13.039062 12.546875 -11.4375 L 12.109375 -11.4375 C 12.191406 -11.863281 12.234375 -12.28125 12.234375 -12.6875 C 12.234375 -13.582031 11.957031 -14.296875 11.40625 -14.828125 C 10.851562 -15.359375 10.066406 -15.625 9.046875 -15.625 C 8.234375 -15.625 7.578125 -15.421875 7.078125 -15.015625 C 6.578125 -14.609375 6.328125 -13.992188 6.328125 -13.171875 C 6.328125 -12.492188 6.53125 -11.851562 6.9375 -11.25 C 7.351562 -10.644531 7.976562 -9.894531 8.8125 -9 C 9.4375 -8.34375 9.925781 -7.789062 10.28125 -7.34375 C 10.644531 -6.894531 10.953125 -6.398438 11.203125 -5.859375 C 11.460938 -5.328125 11.59375 -4.757812 11.59375 -4.15625 C 11.59375 -3.15625 11.269531 -2.320312 10.625 -1.65625 C 9.988281 -0.988281 9.195312 -0.492188 8.25 -0.171875 C 7.300781 0.148438 6.359375 0.3125 5.421875 0.3125 C 4.460938 0.3125 3.722656 0.226562 3.203125 0.0625 C 2.679688 -0.09375 2.128906 -0.351562 1.546875 -0.71875 C 1.210938 -0.9375 0.953125 -1.046875 0.765625 -1.046875 C 0.566406 -1.046875 0.410156 -0.96875 0.296875 -0.8125 C 0.191406 -0.65625 0.0351562 -0.332031 -0.171875 0.15625 L -0.625 0.15625 C -0.382812 -0.40625 -0.148438 -1.085938 0.078125 -1.890625 C 0.304688 -2.691406 0.578125 -3.800781 0.890625 -5.21875 L 1.34375 -5.21875 C 1.207031 -4.644531 1.140625 -4.113281 1.140625 -3.625 C 1.140625 -2.507812 1.445312 -1.65625 2.0625 -1.0625 C 2.6875 -0.46875 3.59375 -0.171875 4.78125 -0.171875 C 6.707031 -0.171875 7.671875 -0.957031 7.671875 -2.53125 C 7.671875 -3.363281 7.472656 -4.109375 7.078125 -4.765625 C 6.679688 -5.429688 6.085938 -6.203125 5.296875 -7.078125 C 4.765625 -7.679688 4.34375 -8.1875 4.03125 -8.59375 C 3.71875 -9.007812 3.453125 -9.476562 3.234375 -10 C 3.015625 -10.519531 2.90625 -11.082031 2.90625 -11.6875 C 2.90625 -12.632812 3.175781 -13.445312 3.71875 -14.125 C 4.269531 -14.800781 4.96875 -15.304688 5.8125 -15.640625 C 6.664062 -15.984375 7.53125 -16.15625 8.40625 -16.15625 C 9.1875 -16.15625 9.851562 -16.066406 10.40625 -15.890625 C 10.957031 -15.710938 11.472656 -15.472656 11.953125 -15.171875 C 12.335938 -14.929688 12.582031 -14.8125 12.6875 -14.8125 C 12.800781 -14.8125 12.914062 -14.90625 13.03125 -15.09375 C 13.144531 -15.28125 13.273438 -15.582031 13.421875 -16 Z M 13.875 -16 "/></g></g></g><g fill="#000000" fill-opacity="1"><g transform="translate(131.362834, 32.015071)"><g><path d="M 0.9375 -5.0625 C 0.9375 -6.738281 1.363281 -8.441406 2.21875 -10.171875 C 3.082031 -11.910156 4.289062 -13.34375 5.84375 -14.46875 C 7.394531 -15.59375 9.140625 -16.15625 11.078125 -16.15625 C 12.984375 -16.15625 14.472656 -15.679688 15.546875 -14.734375 C 16.617188 -13.796875 17.15625 -12.472656 17.15625 -10.765625 C 17.15625 -9.078125 16.722656 -7.367188 15.859375 -5.640625 C 14.992188 -3.921875 13.785156 -2.5 12.234375 -1.375 C 10.679688 -0.25 8.9375 0.3125 7 0.3125 C 5.09375 0.3125 3.601562 -0.15625 2.53125 -1.09375 C 1.46875 -2.03125 0.9375 -3.351562 0.9375 -5.0625 Z M 10.875 -15.75 C 9.863281 -15.75 8.882812 -15.210938 7.9375 -14.140625 C 7 -13.066406 6.238281 -11.675781 5.65625 -9.96875 C 5.070312 -8.269531 4.78125 -6.535156 4.78125 -4.765625 C 4.78125 -3.316406 5.003906 -2.175781 5.453125 -1.34375 C 5.898438 -0.507812 6.484375 -0.09375 7.203125 -0.09375 C 8.210938 -0.09375 9.1875 -0.628906 10.125 -1.703125 C 11.070312 -2.773438 11.835938 -4.160156 12.421875 -5.859375 C 13.003906 -7.554688 13.296875 -9.296875 13.296875 -11.078125 C 13.296875 -12.523438 13.070312 -13.664062 12.625 -14.5 C 12.175781 -15.332031 11.59375 -15.75 10.875 -15.75 Z M 10.875 -15.75 "/></g></g></g><g fill="#000000" fill-opacity="1"><g transform="translate(13.445268, 53.242408)"><g><path d="M 17.609375 -16.71875 C 17.085938 -15.363281 16.585938 -13.550781 16.109375 -11.28125 L 15.578125 -11.28125 C 15.703125 -12.007812 15.765625 -12.632812 15.765625 -13.15625 C 15.765625 -13.875 15.632812 -14.46875 15.375 -14.9375 C 14.820312 -15.96875 13.890625 -16.484375 12.578125 -16.484375 C 11.316406 -16.484375 10.113281 -15.925781 8.96875 -14.8125 C 7.832031 -13.707031 6.921875 -12.269531 6.234375 -10.5 C 5.554688 -8.726562 5.21875 -6.910156 5.21875 -5.046875 C 5.21875 -3.492188 5.492188 -2.328125 6.046875 -1.546875 C 6.609375 -0.765625 7.394531 -0.375 8.40625 -0.375 C 9 -0.375 9.617188 -0.507812 10.265625 -0.78125 C 10.910156 -1.0625 11.472656 -1.445312 11.953125 -1.9375 C 12.359375 -2.375 12.710938 -2.863281 13.015625 -3.40625 C 13.328125 -3.945312 13.679688 -4.703125 14.078125 -5.671875 L 14.59375 -5.671875 C 13.851562 -2.941406 13.390625 -1.050781 13.203125 0 L 12.671875 0 C 12.722656 -0.332031 12.75 -0.597656 12.75 -0.796875 C 12.75 -1.210938 12.644531 -1.421875 12.4375 -1.421875 C 12.3125 -1.421875 12.15625 -1.347656 11.96875 -1.203125 C 11.25 -0.710938 10.523438 -0.332031 9.796875 -0.0625 C 9.078125 0.195312 8.257812 0.328125 7.34375 0.328125 C 5.226562 0.328125 3.644531 -0.171875 2.59375 -1.171875 C 1.539062 -2.179688 1.015625 -3.632812 1.015625 -5.53125 C 1.015625 -7.382812 1.503906 -9.203125 2.484375 -10.984375 C 3.472656 -12.773438 4.832031 -14.234375 6.5625 -15.359375 C 8.289062 -16.484375 10.203125 -17.046875 12.296875 -17.046875 C 13.179688 -17.046875 13.878906 -16.910156 14.390625 -16.640625 C 14.898438 -16.378906 15.375 -16.003906 15.8125 -15.515625 C 15.9375 -15.367188 16.054688 -15.296875 16.171875 -15.296875 C 16.453125 -15.296875 16.765625 -15.769531 17.109375 -16.71875 Z M 17.609375 -16.71875 "/></g></g></g><g fill="#000000" fill-opacity="1"><g transform="translate(29.801209, 53.242408)"><g><path d="M 15.1875 -12.84375 C 15.4375 -13.769531 15.5625 -14.4375 15.5625 -14.84375 C 15.5625 -15.300781 15.425781 -15.628906 15.15625 -15.828125 C 14.882812 -16.023438 14.421875 -16.164062 13.765625 -16.25 L 13.875 -16.71875 C 14.457031 -16.664062 15.300781 -16.640625 16.40625 -16.640625 C 17.269531 -16.640625 17.960938 -16.664062 18.484375 -16.71875 L 18.375 -16.25 C 17.832031 -16.164062 17.410156 -16.03125 17.109375 -15.84375 C 16.816406 -15.65625 16.570312 -15.351562 16.375 -14.9375 C 16.175781 -14.53125 15.972656 -13.925781 15.765625 -13.125 L 14.171875 -6.875 C 13.597656 -4.695312 12.828125 -3.023438 11.859375 -1.859375 C 11.273438 -1.179688 10.5625 -0.644531 9.71875 -0.25 C 8.875 0.132812 7.972656 0.328125 7.015625 0.328125 C 5.859375 0.328125 4.894531 0.164062 4.125 -0.15625 C 3.351562 -0.476562 2.78125 -0.9375 2.40625 -1.53125 C 1.976562 -2.144531 1.765625 -2.878906 1.765625 -3.734375 C 1.765625 -4.484375 1.941406 -5.503906 2.296875 -6.796875 L 4.25 -14.21875 C 4.375 -14.75 4.4375 -15.125 4.4375 -15.34375 C 4.4375 -15.6875 4.320312 -15.914062 4.09375 -16.03125 C 3.863281 -16.144531 3.453125 -16.21875 2.859375 -16.25 L 3 -16.71875 C 3.800781 -16.664062 5.097656 -16.640625 6.890625 -16.640625 C 8.359375 -16.640625 9.578125 -16.664062 10.546875 -16.71875 L 10.40625 -16.25 C 9.820312 -16.21875 9.394531 -16.148438 9.125 -16.046875 C 8.851562 -15.953125 8.632812 -15.769531 8.46875 -15.5 C 8.300781 -15.238281 8.140625 -14.8125 7.984375 -14.21875 L 5.90625 -6.390625 C 5.519531 -5.015625 5.328125 -3.867188 5.328125 -2.953125 C 5.328125 -2.128906 5.5 -1.515625 5.84375 -1.109375 C 6.195312 -0.703125 6.734375 -0.5 7.453125 -0.5 C 9.109375 -0.5 10.410156 -1.03125 11.359375 -2.09375 C 12.316406 -3.164062 13.046875 -4.671875 13.546875 -6.609375 Z M 15.1875 -12.84375 "/></g></g></g><g fill="#000000" fill-opacity="1"><g transform="translate(46.180759, 53.242408)"><g><path d="M 13.265625 -4.953125 C 13.109375 -4.535156 12.921875 -3.890625 12.703125 -3.015625 C 12.453125 -2.140625 12.238281 -1.132812 12.0625 0 C 10.988281 -0.0507812 9.203125 -0.078125 6.703125 -0.078125 C 3.273438 -0.078125 0.703125 -0.0507812 -1.015625 0 L -0.890625 -0.46875 C -0.328125 -0.5 0.0859375 -0.5625 0.359375 -0.65625 C 0.640625 -0.75 0.863281 -0.929688 1.03125 -1.203125 C 1.207031 -1.472656 1.375 -1.90625 1.53125 -2.5 L 4.65625 -14.21875 C 4.78125 -14.75 4.84375 -15.125 4.84375 -15.34375 C 4.84375 -15.6875 4.726562 -15.914062 4.5 -16.03125 C 4.269531 -16.144531 3.859375 -16.21875 3.265625 -16.25 L 3.375 -16.71875 C 4.207031 -16.664062 5.503906 -16.640625 7.265625 -16.640625 C 8.742188 -16.640625 9.972656 -16.664062 10.953125 -16.71875 L 10.84375 -16.25 C 10.257812 -16.21875 9.828125 -16.148438 9.546875 -16.046875 C 9.273438 -15.953125 9.050781 -15.769531 8.875 -15.5 C 8.707031 -15.238281 8.539062 -14.8125 8.375 -14.21875 L 5.265625 -2.5 C 5.117188 -1.90625 5.046875 -1.519531 5.046875 -1.34375 C 5.046875 -1.007812 5.160156 -0.789062 5.390625 -0.6875 C 5.617188 -0.59375 6.035156 -0.546875 6.640625 -0.546875 L 7.578125 -0.546875 C 8.691406 -0.546875 9.675781 -0.882812 10.53125 -1.5625 C 11.382812 -2.25 12.125 -3.378906 12.75 -4.953125 Z M 13.265625 -4.953125 "/></g></g></g><g fill="#000000" fill-opacity="1"><g transform="translate(60.459758, 53.242408)"><g><path d="M 5.28125 -2.5 C 5.144531 -1.90625 5.078125 -1.519531 5.078125 -1.34375 C 5.078125 -1.007812 5.191406 -0.785156 5.421875 -0.671875 C 5.648438 -0.566406 6.070312 -0.5 6.6875 -0.46875 L 6.59375 0 C 5.675781 -0.0507812 4.390625 -0.078125 2.734375 -0.078125 C 1.085938 -0.078125 -0.144531 -0.0507812 -0.96875 0 L -0.84375 -0.46875 C -0.300781 -0.5 0.101562 -0.5625 0.375 -0.65625 C 0.65625 -0.75 0.878906 -0.929688 1.046875 -1.203125 C 1.210938 -1.484375 1.375 -1.914062 1.53125 -2.5 L 4.65625 -14.21875 C 4.78125 -14.75 4.84375 -15.125 4.84375 -15.34375 C 4.84375 -15.6875 4.726562 -15.914062 4.5 -16.03125 C 4.269531 -16.144531 3.859375 -16.21875 3.265625 -16.25 L 3.375 -16.71875 C 4.144531 -16.664062 5.378906 -16.640625 7.078125 -16.640625 C 8.640625 -16.640625 9.929688 -16.664062 10.953125 -16.71875 L 10.84375 -16.25 C 10.257812 -16.21875 9.828125 -16.148438 9.546875 -16.046875 C 9.273438 -15.953125 9.054688 -15.769531 8.890625 -15.5 C 8.722656 -15.238281 8.5625 -14.8125 8.40625 -14.21875 Z M 5.28125 -2.5 "/></g></g></g><g fill="#000000" fill-opacity="1"><g transform="translate(69.664401, 53.242408)"><g><path d="M 19.78125 -17.796875 C 20.476562 -17.796875 21.023438 -17.609375 21.421875 -17.234375 C 21.828125 -16.859375 22.03125 -16.378906 22.03125 -15.796875 C 22.03125 -15.179688 21.820312 -14.664062 21.40625 -14.25 C 21 -13.84375 20.488281 -13.640625 19.875 -13.640625 C 19.351562 -13.640625 18.953125 -13.769531 18.671875 -14.03125 C 18.390625 -14.289062 18.25 -14.632812 18.25 -15.0625 C 18.25 -15.582031 18.410156 -16.035156 18.734375 -16.421875 C 19.066406 -16.816406 19.492188 -17.097656 20.015625 -17.265625 C 19.953125 -17.328125 19.828125 -17.359375 19.640625 -17.359375 C 18.890625 -17.359375 18.226562 -16.941406 17.65625 -16.109375 C 16.96875 -15.066406 16.242188 -13.234375 15.484375 -10.609375 C 14.734375 -7.992188 13.878906 -4.414062 12.921875 0.125 L 12.390625 0.125 L 6.546875 -12.703125 C 5.867188 -9.367188 5.222656 -6.554688 4.609375 -4.265625 C 4.003906 -1.984375 3.421875 -0.472656 2.859375 0.265625 C 2.515625 0.710938 2.148438 1.070312 1.765625 1.34375 C 1.378906 1.613281 0.898438 1.75 0.328125 1.75 C -0.359375 1.75 -0.898438 1.554688 -1.296875 1.171875 C -1.691406 0.796875 -1.890625 0.316406 -1.890625 -0.265625 C -1.890625 -0.878906 -1.6875 -1.390625 -1.28125 -1.796875 C -0.882812 -2.203125 -0.367188 -2.40625 0.265625 -2.40625 C 0.765625 -2.40625 1.160156 -2.273438 1.453125 -2.015625 C 1.742188 -1.753906 1.890625 -1.410156 1.890625 -0.984375 C 1.890625 -0.472656 1.71875 -0.0195312 1.375 0.375 C 1.039062 0.769531 0.613281 1.046875 0.09375 1.203125 C 0.175781 1.265625 0.3125 1.296875 0.5 1.296875 C 1.300781 1.296875 1.960938 0.875 2.484375 0.03125 C 3.066406 -0.90625 3.671875 -2.566406 4.296875 -4.953125 C 4.921875 -7.347656 5.601562 -10.4375 6.34375 -14.21875 C 6.445312 -14.664062 6.5 -15.019531 6.5 -15.28125 C 6.5 -15.65625 6.367188 -15.898438 6.109375 -16.015625 C 5.859375 -16.140625 5.378906 -16.21875 4.671875 -16.25 L 4.796875 -16.71875 C 5.296875 -16.664062 5.992188 -16.640625 6.890625 -16.640625 C 7.617188 -16.640625 8.257812 -16.664062 8.8125 -16.71875 L 13.6875 -5.53125 C 15.007812 -11.175781 16.191406 -14.765625 17.234375 -16.296875 C 17.929688 -17.296875 18.78125 -17.796875 19.78125 -17.796875 Z M 19.78125 -17.796875 "/></g></g></g><g fill="#000000" fill-opacity="1"><g transform="translate(89.135768, 53.242408)"><g><path d="M 12.578125 -1.984375 C 12.628906 -1.460938 12.765625 -1.082031 12.984375 -0.84375 C 13.203125 -0.613281 13.453125 -0.488281 13.734375 -0.46875 L 13.640625 0 C 12.835938 -0.0507812 11.695312 -0.078125 10.21875 -0.078125 C 8.613281 -0.078125 7.4375 -0.0507812 6.6875 0 L 6.78125 -0.46875 C 7.3125 -0.5 7.722656 -0.566406 8.015625 -0.671875 C 8.316406 -0.773438 8.53125 -0.960938 8.65625 -1.234375 C 8.789062 -1.515625 8.84375 -1.921875 8.8125 -2.453125 L 8.59375 -6.328125 L 3.5 -6.328125 L 1.421875 -3.375 C 0.910156 -2.664062 0.65625 -2.082031 0.65625 -1.625 C 0.65625 -1.25 0.820312 -0.96875 1.15625 -0.78125 C 1.5 -0.601562 1.992188 -0.5 2.640625 -0.46875 L 2.53125 0 C 1.207031 -0.0507812 0.179688 -0.078125 -0.546875 -0.078125 C -1.128906 -0.078125 -1.671875 -0.0507812 -2.171875 0 L -2.078125 -0.46875 C -1.671875 -0.582031 -1.273438 -0.816406 -0.890625 -1.171875 C -0.503906 -1.535156 -0.0078125 -2.132812 0.59375 -2.96875 L 10.4375 -16.828125 C 10.570312 -16.816406 10.773438 -16.8125 11.046875 -16.8125 C 11.328125 -16.8125 11.523438 -16.816406 11.640625 -16.828125 Z M 8.5625 -6.796875 L 8.265625 -13.0625 L 3.828125 -6.796875 Z M 8.5625 -6.796875 "/></g></g></g><g fill="#000000" fill-opacity="1"><g transform="translate(104.54764, 53.242408)"><g><path d="M 15.46875 -2.859375 L 16 -2.859375 L 15.90625 -2.546875 C 15.613281 -1.554688 15.179688 -0.828125 14.609375 -0.359375 C 14.046875 0.0976562 13.273438 0.328125 12.296875 0.328125 C 11.335938 0.328125 10.617188 0.125 10.140625 -0.28125 C 9.660156 -0.6875 9.421875 -1.242188 9.421875 -1.953125 C 9.421875 -2.160156 9.425781 -2.3125 9.4375 -2.40625 L 9.796875 -5.09375 C 9.828125 -5.476562 9.84375 -5.738281 9.84375 -5.875 C 9.84375 -6.601562 9.617188 -7.132812 9.171875 -7.46875 C 8.722656 -7.8125 7.914062 -8 6.75 -8.03125 L 5.28125 -2.5 C 5.125 -1.945312 5.046875 -1.5625 5.046875 -1.34375 C 5.046875 -1.039062 5.164062 -0.820312 5.40625 -0.6875 C 5.644531 -0.5625 6.0625 -0.488281 6.65625 -0.46875 L 6.5625 0 C 5.613281 -0.0507812 4.382812 -0.078125 2.875 -0.078125 C 1.132812 -0.078125 -0.148438 -0.0507812 -0.984375 0 L -0.890625 -0.46875 C -0.328125 -0.5 0.09375 -0.5625 0.375 -0.65625 C 0.65625 -0.75 0.878906 -0.929688 1.046875 -1.203125 C 1.210938 -1.472656 1.375 -1.90625 1.53125 -2.5 L 4.625 -14.21875 C 4.769531 -14.78125 4.84375 -15.148438 4.84375 -15.328125 C 4.84375 -15.640625 4.726562 -15.863281 4.5 -16 C 4.269531 -16.144531 3.859375 -16.226562 3.265625 -16.25 L 3.375 -16.71875 C 4.175781 -16.664062 5.363281 -16.640625 6.9375 -16.640625 L 8.96875 -16.671875 C 9.332031 -16.679688 9.835938 -16.6875 10.484375 -16.6875 C 12.398438 -16.6875 13.816406 -16.421875 14.734375 -15.890625 C 15.660156 -15.359375 16.125 -14.53125 16.125 -13.40625 C 16.125 -12.019531 15.5 -10.859375 14.25 -9.921875 C 13 -8.984375 11.3125 -8.398438 9.1875 -8.171875 C 10.613281 -8.023438 11.695312 -7.765625 12.4375 -7.390625 C 13.175781 -7.015625 13.546875 -6.363281 13.546875 -5.4375 C 13.546875 -5.332031 13.53125 -5.15625 13.5 -4.90625 L 13.171875 -2.484375 C 13.160156 -2.359375 13.15625 -2.179688 13.15625 -1.953125 C 13.15625 -1.203125 13.40625 -0.828125 13.90625 -0.828125 C 14.207031 -0.828125 14.46875 -0.960938 14.6875 -1.234375 C 14.90625 -1.515625 15.125 -1.945312 15.34375 -2.53125 Z M 6.84375 -8.453125 L 7.03125 -8.453125 C 8.625 -8.453125 9.90625 -8.921875 10.875 -9.859375 C 11.84375 -10.796875 12.328125 -12.097656 12.328125 -13.765625 C 12.328125 -14.617188 12.144531 -15.242188 11.78125 -15.640625 C 11.414062 -16.046875 10.863281 -16.25 10.125 -16.25 C 9.65625 -16.25 9.304688 -16.140625 9.078125 -15.921875 C 8.847656 -15.710938 8.65625 -15.300781 8.5 -14.6875 Z M 6.84375 -8.453125 "/></g></g></g><g fill="#000000" fill-opacity="1"><g transform="translate(121.328408, 53.242408)"><g><path d="M 5.28125 -2.5 C 5.144531 -1.90625 5.078125 -1.519531 5.078125 -1.34375 C 5.078125 -1.007812 5.191406 -0.785156 5.421875 -0.671875 C 5.648438 -0.566406 6.070312 -0.5 6.6875 -0.46875 L 6.59375 0 C 5.675781 -0.0507812 4.390625 -0.078125 2.734375 -0.078125 C 1.085938 -0.078125 -0.144531 -0.0507812 -0.96875 0 L -0.84375 -0.46875 C -0.300781 -0.5 0.101562 -0.5625 0.375 -0.65625 C 0.65625 -0.75 0.878906 -0.929688 1.046875 -1.203125 C 1.210938 -1.484375 1.375 -1.914062 1.53125 -2.5 L 4.65625 -14.21875 C 4.78125 -14.75 4.84375 -15.125 4.84375 -15.34375 C 4.84375 -15.6875 4.726562 -15.914062 4.5 -16.03125 C 4.269531 -16.144531 3.859375 -16.21875 3.265625 -16.25 L 3.375 -16.71875 C 4.144531 -16.664062 5.378906 -16.640625 7.078125 -16.640625 C 8.640625 -16.640625 9.929688 -16.664062 10.953125 -16.71875 L 10.84375 -16.25 C 10.257812 -16.21875 9.828125 -16.148438 9.546875 -16.046875 C 9.273438 -15.953125 9.054688 -15.769531 8.890625 -15.5 C 8.722656 -15.238281 8.5625 -14.8125 8.40625 -14.21875 Z M 5.28125 -2.5 "/></g></g></g><g fill="#000000" fill-opacity="1"><g transform="translate(130.533051, 53.242408)"><g><path d="M 0.984375 -5.328125 C 0.984375 -7.109375 1.4375 -8.910156 2.34375 -10.734375 C 3.25 -12.566406 4.519531 -14.078125 6.15625 -15.265625 C 7.800781 -16.453125 9.644531 -17.046875 11.6875 -17.046875 C 13.695312 -17.046875 15.269531 -16.550781 16.40625 -15.5625 C 17.539062 -14.570312 18.109375 -13.171875 18.109375 -11.359375 C 18.109375 -9.578125 17.648438 -7.773438 16.734375 -5.953125 C 15.828125 -4.140625 14.550781 -2.640625 12.90625 -1.453125 C 11.269531 -0.265625 9.429688 0.328125 7.390625 0.328125 C 5.378906 0.328125 3.804688 -0.164062 2.671875 -1.15625 C 1.546875 -2.144531 0.984375 -3.535156 0.984375 -5.328125 Z M 11.46875 -16.625 C 10.40625 -16.625 9.375 -16.054688 8.375 -14.921875 C 7.382812 -13.785156 6.582031 -12.320312 5.96875 -10.53125 C 5.351562 -8.738281 5.046875 -6.90625 5.046875 -5.03125 C 5.046875 -3.5 5.28125 -2.289062 5.75 -1.40625 C 6.226562 -0.53125 6.847656 -0.09375 7.609375 -0.09375 C 8.671875 -0.09375 9.695312 -0.660156 10.6875 -1.796875 C 11.6875 -2.929688 12.492188 -4.394531 13.109375 -6.1875 C 13.722656 -7.976562 14.03125 -9.8125 14.03125 -11.6875 C 14.03125 -13.21875 13.789062 -14.421875 13.3125 -15.296875 C 12.84375 -16.179688 12.226562 -16.625 11.46875 -16.625 Z M 11.46875 -16.625 "/></g></g></g></svg>