<svg xmlns="http://www.w3.org/2000/svg" xmlns:xlink="http://www.w3.org/1999/xlink" width="200" zoomAndPan="magnify" viewBox="0 0 150 60" height="80" preserveAspectRatio="xMidYMid meet" version="1.0"><defs><g/></defs><g fill="#ffffff" fill-opacity="1"><g transform="translate(12.201403, 28.496815)"><g><path d="M 15.25 -12.953125 C 16.425781 -12.953125 17.410156 -12.972656 18.203125 -13.015625 L 18.125 -12.640625 C 17.664062 -12.617188 17.328125 -12.570312 17.109375 -12.5 C 16.898438 -12.425781 16.726562 -12.285156 16.59375 -12.078125 C 16.46875 -11.867188 16.34375 -11.53125 16.21875 -11.0625 L 13.796875 -1.953125 C 13.703125 -1.535156 13.65625 -1.238281 13.65625 -1.0625 C 13.65625 -0.789062 13.742188 -0.613281 13.921875 -0.53125 C 14.097656 -0.445312 14.421875 -0.394531 14.890625 -0.375 L 14.8125 0 C 14.039062 -0.0390625 13.0625 -0.0625 11.875 -0.0625 C 10.539062 -0.0625 9.5625 -0.0390625 8.9375 0 L 9 -0.375 C 9.457031 -0.394531 9.789062 -0.441406 10 -0.515625 C 10.21875 -0.585938 10.390625 -0.726562 10.515625 -0.9375 C 10.648438 -1.144531 10.773438 -1.484375 10.890625 -1.953125 L 13.5625 -11.859375 L 5.9375 0.09375 L 5.53125 0.09375 L 4.046875 -11.1875 L 1.734375 -2.375 C 1.628906 -2.019531 1.578125 -1.71875 1.578125 -1.46875 C 1.578125 -1.113281 1.691406 -0.84375 1.921875 -0.65625 C 2.160156 -0.476562 2.554688 -0.382812 3.109375 -0.375 L 3.03125 0 C 2.59375 -0.0390625 1.90625 -0.0625 0.96875 -0.0625 C 0.238281 -0.0625 -0.335938 -0.0390625 -0.765625 0 L -0.6875 -0.375 C -0.09375 -0.394531 0.34375 -0.566406 0.625 -0.890625 C 0.914062 -1.222656 1.140625 -1.71875 1.296875 -2.375 L 3.640625 -11.0625 C 3.734375 -11.476562 3.78125 -11.769531 3.78125 -11.9375 C 3.78125 -12.207031 3.691406 -12.382812 3.515625 -12.46875 C 3.335938 -12.5625 3.015625 -12.617188 2.546875 -12.640625 L 2.640625 -13.015625 C 3.191406 -12.972656 4.03125 -12.953125 5.15625 -12.953125 C 5.800781 -12.953125 6.351562 -12.972656 6.8125 -13.015625 L 7.859375 -3.625 L 13.8125 -12.953125 Z M 15.25 -12.953125 "/></g></g></g><g fill="#ffffff" fill-opacity="1"><g transform="translate(29.052258, 28.496815)"><g><path d="M 11.8125 -10 C 12.007812 -10.71875 12.109375 -11.238281 12.109375 -11.5625 C 12.109375 -11.914062 12.003906 -12.164062 11.796875 -12.3125 C 11.585938 -12.46875 11.226562 -12.578125 10.71875 -12.640625 L 10.796875 -13.015625 C 11.253906 -12.972656 11.910156 -12.953125 12.765625 -12.953125 C 13.441406 -12.953125 13.984375 -12.972656 14.390625 -13.015625 L 14.296875 -12.640625 C 13.878906 -12.578125 13.550781 -12.472656 13.3125 -12.328125 C 13.082031 -12.179688 12.890625 -11.945312 12.734375 -11.625 C 12.585938 -11.3125 12.4375 -10.84375 12.28125 -10.21875 L 11.03125 -5.34375 C 10.582031 -3.65625 9.976562 -2.359375 9.21875 -1.453125 C 8.769531 -0.921875 8.21875 -0.503906 7.5625 -0.203125 C 6.90625 0.0976562 6.203125 0.25 5.453125 0.25 C 4.554688 0.25 3.804688 0.125 3.203125 -0.125 C 2.609375 -0.375 2.164062 -0.726562 1.875 -1.1875 C 1.539062 -1.664062 1.375 -2.238281 1.375 -2.90625 C 1.375 -3.488281 1.507812 -4.285156 1.78125 -5.296875 L 3.3125 -11.0625 C 3.40625 -11.476562 3.453125 -11.769531 3.453125 -11.9375 C 3.453125 -12.207031 3.363281 -12.382812 3.1875 -12.46875 C 3.007812 -12.5625 2.6875 -12.617188 2.21875 -12.640625 L 2.328125 -13.015625 C 2.953125 -12.972656 3.960938 -12.953125 5.359375 -12.953125 C 6.503906 -12.953125 7.457031 -12.972656 8.21875 -13.015625 L 8.109375 -12.640625 C 7.648438 -12.617188 7.3125 -12.570312 7.09375 -12.5 C 6.882812 -12.425781 6.710938 -12.285156 6.578125 -12.078125 C 6.453125 -11.867188 6.328125 -11.53125 6.203125 -11.0625 L 4.59375 -4.984375 C 4.300781 -3.898438 4.15625 -3.003906 4.15625 -2.296875 C 4.15625 -1.660156 4.289062 -1.179688 4.5625 -0.859375 C 4.832031 -0.546875 5.25 -0.390625 5.8125 -0.390625 C 7.09375 -0.390625 8.101562 -0.804688 8.84375 -1.640625 C 9.582031 -2.472656 10.148438 -3.640625 10.546875 -5.140625 Z M 11.8125 -10 "/></g></g></g><g fill="#ffffff" fill-opacity="1"><g transform="translate(41.805251, 28.496815)"><g><path d="M 10.328125 -3.859375 C 10.203125 -3.523438 10.054688 -3.023438 9.890625 -2.359375 C 9.691406 -1.671875 9.523438 -0.882812 9.390625 0 C 8.554688 -0.0390625 7.164062 -0.0625 5.21875 -0.0625 C 2.550781 -0.0625 0.546875 -0.0390625 -0.796875 0 L -0.703125 -0.375 C -0.253906 -0.394531 0.0703125 -0.441406 0.28125 -0.515625 C 0.5 -0.585938 0.675781 -0.726562 0.8125 -0.9375 C 0.945312 -1.144531 1.070312 -1.484375 1.1875 -1.953125 L 3.625 -11.0625 C 3.71875 -11.476562 3.765625 -11.769531 3.765625 -11.9375 C 3.765625 -12.207031 3.675781 -12.382812 3.5 -12.46875 C 3.320312 -12.5625 3 -12.617188 2.53125 -12.640625 L 2.625 -13.015625 C 3.269531 -12.972656 4.28125 -12.953125 5.65625 -12.953125 C 6.8125 -12.953125 7.769531 -12.972656 8.53125 -13.015625 L 8.4375 -12.640625 C 7.976562 -12.617188 7.640625 -12.570312 7.421875 -12.5 C 7.210938 -12.425781 7.039062 -12.285156 6.90625 -12.078125 C 6.769531 -11.867188 6.640625 -11.53125 6.515625 -11.0625 L 4.09375 -1.953125 C 3.988281 -1.484375 3.9375 -1.179688 3.9375 -1.046875 C 3.9375 -0.785156 4.023438 -0.613281 4.203125 -0.53125 C 4.378906 -0.457031 4.695312 -0.421875 5.15625 -0.421875 L 5.890625 -0.421875 C 6.765625 -0.421875 7.53125 -0.6875 8.1875 -1.21875 C 8.851562 -1.75 9.429688 -2.628906 9.921875 -3.859375 Z M 10.328125 -3.859375 "/></g></g></g><g fill="#ffffff" fill-opacity="1"><g transform="translate(52.922774, 28.496815)"><g><path d="M 14.34375 -15.765625 C 14.78125 -15.765625 15.125 -15.640625 15.375 -15.390625 C 15.632812 -15.140625 15.765625 -14.835938 15.765625 -14.484375 C 15.765625 -13.734375 15.34375 -13.148438 14.5 -12.734375 C 13.75 -12.378906 12.722656 -12.203125 11.421875 -12.203125 C 11.203125 -12.203125 10.847656 -12.210938 10.359375 -12.234375 L 7.65625 -2.125 C 7.5625 -1.757812 7.515625 -1.476562 7.515625 -1.28125 C 7.515625 -0.96875 7.625 -0.742188 7.84375 -0.609375 C 8.070312 -0.472656 8.472656 -0.394531 9.046875 -0.375 L 8.96875 0 C 8.195312 -0.0390625 7.0625 -0.0625 5.5625 -0.0625 C 4.101562 -0.0625 3.023438 -0.0390625 2.328125 0 L 2.40625 -0.375 C 2.9375 -0.394531 3.34375 -0.457031 3.625 -0.5625 C 3.914062 -0.664062 4.144531 -0.835938 4.3125 -1.078125 C 4.476562 -1.316406 4.617188 -1.664062 4.734375 -2.125 L 7.515625 -12.515625 C 6.597656 -12.597656 5.863281 -12.640625 5.3125 -12.640625 C 4.289062 -12.640625 3.597656 -12.535156 3.234375 -12.328125 C 3.554688 -12.234375 3.820312 -12.050781 4.03125 -11.78125 C 4.238281 -11.519531 4.34375 -11.207031 4.34375 -10.84375 C 4.34375 -10.414062 4.207031 -10.050781 3.9375 -9.75 C 3.664062 -9.445312 3.320312 -9.296875 2.90625 -9.296875 C 2.5 -9.296875 2.175781 -9.429688 1.9375 -9.703125 C 1.695312 -9.984375 1.578125 -10.332031 1.578125 -10.75 C 1.578125 -11.09375 1.671875 -11.421875 1.859375 -11.734375 C 2.054688 -12.054688 2.363281 -12.320312 2.78125 -12.53125 C 3.375 -12.820312 4.191406 -12.96875 5.234375 -12.96875 C 6.046875 -12.96875 7.1875 -12.894531 8.65625 -12.75 C 10 -12.625 10.976562 -12.5625 11.59375 -12.5625 C 12.414062 -12.5625 13.066406 -12.644531 13.546875 -12.8125 C 13.359375 -12.976562 13.203125 -13.1875 13.078125 -13.4375 C 12.960938 -13.6875 12.90625 -13.960938 12.90625 -14.265625 C 12.90625 -14.703125 13.035156 -15.0625 13.296875 -15.34375 C 13.554688 -15.625 13.90625 -15.765625 14.34375 -15.765625 Z M 14.34375 -15.765625 "/></g></g></g><g fill="#ffffff" fill-opacity="1"><g transform="translate(65.436879, 28.496815)"><g><path d="M 4.109375 -1.953125 C 4.003906 -1.484375 3.953125 -1.179688 3.953125 -1.046875 C 3.953125 -0.785156 4.039062 -0.613281 4.21875 -0.53125 C 4.394531 -0.445312 4.722656 -0.394531 5.203125 -0.375 L 5.125 0 C 4.414062 -0.0390625 3.414062 -0.0625 2.125 -0.0625 C 0.84375 -0.0625 -0.113281 -0.0390625 -0.75 0 L -0.65625 -0.375 C -0.226562 -0.394531 0.0859375 -0.441406 0.296875 -0.515625 C 0.515625 -0.585938 0.6875 -0.726562 0.8125 -0.9375 C 0.945312 -1.15625 1.070312 -1.492188 1.1875 -1.953125 L 3.625 -11.0625 C 3.71875 -11.476562 3.765625 -11.769531 3.765625 -11.9375 C 3.765625 -12.207031 3.675781 -12.382812 3.5 -12.46875 C 3.320312 -12.5625 3 -12.617188 2.53125 -12.640625 L 2.625 -13.015625 C 3.226562 -12.972656 4.191406 -12.953125 5.515625 -12.953125 C 6.722656 -12.953125 7.726562 -12.972656 8.53125 -13.015625 L 8.4375 -12.640625 C 7.976562 -12.617188 7.640625 -12.570312 7.421875 -12.5 C 7.210938 -12.425781 7.039062 -12.285156 6.90625 -12.078125 C 6.78125 -11.867188 6.660156 -11.53125 6.546875 -11.0625 Z M 4.109375 -1.953125 "/></g></g></g><g fill="#ffffff" fill-opacity="1"><g transform="translate(72.603546, 28.496815)"><g><path d="M 12.953125 -12.953125 C 13.484375 -12.953125 13.941406 -12.972656 14.328125 -13.015625 L 14.234375 -12.640625 C 13.835938 -12.535156 13.472656 -12.34375 13.140625 -12.0625 C 12.816406 -11.789062 12.453125 -11.332031 12.046875 -10.6875 L 5.03125 0.09375 L 4.578125 0.078125 L 4.09375 0.09375 L 2.640625 -11.46875 C 2.597656 -11.875 2.476562 -12.164062 2.28125 -12.34375 C 2.09375 -12.53125 1.894531 -12.628906 1.6875 -12.640625 L 1.78125 -13.015625 C 2.40625 -12.972656 3.285156 -12.953125 4.421875 -12.953125 C 5.660156 -12.953125 6.597656 -12.972656 7.234375 -13.015625 L 7.140625 -12.640625 C 6.597656 -12.617188 6.210938 -12.535156 5.984375 -12.390625 C 5.765625 -12.253906 5.65625 -11.972656 5.65625 -11.546875 C 5.65625 -11.359375 5.660156 -11.207031 5.671875 -11.09375 L 6.59375 -2.953125 L 11.421875 -10.375 C 11.796875 -10.945312 11.984375 -11.398438 11.984375 -11.734375 C 11.984375 -12.035156 11.851562 -12.253906 11.59375 -12.390625 C 11.332031 -12.535156 10.953125 -12.617188 10.453125 -12.640625 L 10.546875 -13.015625 C 11.023438 -12.972656 11.828125 -12.953125 12.953125 -12.953125 Z M 12.953125 -12.953125 "/></g></g></g><g fill="#ffffff" fill-opacity="1"><g transform="translate(84.750131, 28.496815)"><g><path d="M 8.59375 -12.953125 C 10.332031 -12.953125 11.578125 -12.972656 12.328125 -13.015625 C 11.984375 -12.078125 11.75 -11.351562 11.625 -10.84375 C 11.570312 -10.570312 11.492188 -10.191406 11.390625 -9.703125 L 10.984375 -9.703125 C 10.992188 -9.859375 11 -10.078125 11 -10.359375 C 11 -11.179688 10.847656 -11.757812 10.546875 -12.09375 C 10.242188 -12.425781 9.71875 -12.59375 8.96875 -12.59375 L 8.390625 -12.59375 C 7.960938 -12.59375 7.640625 -12.554688 7.421875 -12.484375 C 7.210938 -12.421875 7.039062 -12.285156 6.90625 -12.078125 C 6.78125 -11.867188 6.660156 -11.53125 6.546875 -11.0625 L 5.390625 -6.71875 L 6.0625 -6.71875 C 6.675781 -6.71875 7.191406 -6.929688 7.609375 -7.359375 C 8.023438 -7.796875 8.347656 -8.320312 8.578125 -8.9375 L 9 -8.9375 C 8.769531 -8.238281 8.582031 -7.59375 8.4375 -7 L 8.328125 -6.546875 C 8.179688 -5.960938 8.003906 -5.164062 7.796875 -4.15625 L 7.390625 -4.15625 C 7.398438 -4.238281 7.40625 -4.375 7.40625 -4.5625 C 7.40625 -5.757812 6.890625 -6.359375 5.859375 -6.359375 L 5.296875 -6.359375 L 4.109375 -1.953125 C 4.003906 -1.566406 3.953125 -1.265625 3.953125 -1.046875 C 3.953125 -0.785156 4.039062 -0.613281 4.21875 -0.53125 C 4.394531 -0.457031 4.707031 -0.421875 5.15625 -0.421875 L 5.84375 -0.421875 C 6.5 -0.421875 7.050781 -0.519531 7.5 -0.71875 C 7.957031 -0.925781 8.363281 -1.257812 8.71875 -1.71875 C 9.082031 -2.1875 9.445312 -2.835938 9.8125 -3.671875 L 10.234375 -3.671875 C 10.097656 -3.316406 9.960938 -2.878906 9.828125 -2.359375 C 9.617188 -1.628906 9.460938 -0.84375 9.359375 0 C 8.523438 -0.0390625 7.132812 -0.0625 5.1875 -0.0625 C 2.539062 -0.0625 0.546875 -0.0390625 -0.796875 0 L -0.703125 -0.375 C -0.253906 -0.394531 0.0703125 -0.441406 0.28125 -0.515625 C 0.5 -0.585938 0.675781 -0.726562 0.8125 -0.9375 C 0.945312 -1.144531 1.070312 -1.484375 1.1875 -1.953125 L 3.625 -11.0625 C 3.71875 -11.476562 3.765625 -11.769531 3.765625 -11.9375 C 3.765625 -12.207031 3.675781 -12.382812 3.5 -12.46875 C 3.320312 -12.5625 3 -12.617188 2.53125 -12.640625 L 2.625 -13.015625 C 3.957031 -12.972656 5.945312 -12.953125 8.59375 -12.953125 Z M 8.59375 -12.953125 "/></g></g></g><g fill="#ffffff" fill-opacity="1"><g transform="translate(96.253553, 28.496815)"><g><path d="M 12.03125 -2.21875 L 12.453125 -2.21875 L 12.390625 -1.984375 C 12.148438 -1.210938 11.8125 -0.644531 11.375 -0.28125 C 10.9375 0.0703125 10.335938 0.25 9.578125 0.25 C 8.828125 0.25 8.265625 0.09375 7.890625 -0.21875 C 7.515625 -0.539062 7.328125 -0.976562 7.328125 -1.53125 C 7.328125 -1.6875 7.332031 -1.800781 7.34375 -1.875 L 7.625 -3.96875 C 7.644531 -4.257812 7.65625 -4.460938 7.65625 -4.578125 C 7.65625 -5.140625 7.476562 -5.550781 7.125 -5.8125 C 6.78125 -6.070312 6.15625 -6.21875 5.25 -6.25 L 4.109375 -1.953125 C 3.992188 -1.515625 3.9375 -1.210938 3.9375 -1.046875 C 3.9375 -0.816406 4.023438 -0.648438 4.203125 -0.546875 C 4.390625 -0.441406 4.71875 -0.382812 5.1875 -0.375 L 5.109375 0 C 4.367188 -0.0390625 3.410156 -0.0625 2.234375 -0.0625 C 0.878906 -0.0625 -0.117188 -0.0390625 -0.765625 0 L -0.703125 -0.375 C -0.253906 -0.394531 0.078125 -0.441406 0.296875 -0.515625 C 0.515625 -0.585938 0.6875 -0.726562 0.8125 -0.9375 C 0.945312 -1.144531 1.070312 -1.484375 1.1875 -1.953125 L 3.59375 -11.0625 C 3.707031 -11.5 3.765625 -11.785156 3.765625 -11.921875 C 3.765625 -12.171875 3.675781 -12.347656 3.5 -12.453125 C 3.320312 -12.566406 3 -12.628906 2.53125 -12.640625 L 2.625 -13.015625 C 3.25 -12.972656 4.175781 -12.953125 5.40625 -12.953125 L 6.984375 -12.96875 C 7.265625 -12.976562 7.65625 -12.984375 8.15625 -12.984375 C 9.65625 -12.984375 10.757812 -12.773438 11.46875 -12.359375 C 12.1875 -11.941406 12.546875 -11.300781 12.546875 -10.4375 C 12.546875 -9.351562 12.054688 -8.445312 11.078125 -7.71875 C 10.109375 -7 8.796875 -6.546875 7.140625 -6.359375 C 8.253906 -6.242188 9.097656 -6.039062 9.671875 -5.75 C 10.253906 -5.457031 10.546875 -4.945312 10.546875 -4.21875 C 10.546875 -4.144531 10.535156 -4.015625 10.515625 -3.828125 L 10.25 -1.921875 C 10.238281 -1.828125 10.234375 -1.695312 10.234375 -1.53125 C 10.234375 -0.9375 10.429688 -0.640625 10.828125 -0.640625 C 11.054688 -0.640625 11.253906 -0.742188 11.421875 -0.953125 C 11.597656 -1.171875 11.769531 -1.507812 11.9375 -1.96875 Z M 5.328125 -6.578125 L 5.46875 -6.578125 C 6.707031 -6.578125 7.703125 -6.941406 8.453125 -7.671875 C 9.210938 -8.398438 9.59375 -9.414062 9.59375 -10.71875 C 9.59375 -11.375 9.453125 -11.859375 9.171875 -12.171875 C 8.890625 -12.484375 8.460938 -12.640625 7.890625 -12.640625 C 7.515625 -12.640625 7.238281 -12.554688 7.0625 -12.390625 C 6.882812 -12.222656 6.734375 -11.898438 6.609375 -11.421875 Z M 5.328125 -6.578125 "/></g></g></g><g fill="#ffffff" fill-opacity="1"><g transform="translate(109.318937, 28.496815)"><g><path d="M 11.390625 -13.140625 C 10.921875 -11.960938 10.5625 -10.710938 10.3125 -9.390625 L 9.9375 -9.390625 C 10.007812 -9.742188 10.046875 -10.085938 10.046875 -10.421875 C 10.046875 -11.148438 9.816406 -11.734375 9.359375 -12.171875 C 8.910156 -12.609375 8.265625 -12.828125 7.421875 -12.828125 C 6.765625 -12.828125 6.226562 -12.660156 5.8125 -12.328125 C 5.40625 -11.992188 5.203125 -11.492188 5.203125 -10.828125 C 5.203125 -10.265625 5.367188 -9.734375 5.703125 -9.234375 C 6.035156 -8.734375 6.546875 -8.117188 7.234375 -7.390625 C 7.753906 -6.847656 8.160156 -6.390625 8.453125 -6.015625 C 8.742188 -5.648438 8.992188 -5.25 9.203125 -4.8125 C 9.410156 -4.375 9.515625 -3.910156 9.515625 -3.421875 C 9.515625 -2.597656 9.25 -1.910156 8.71875 -1.359375 C 8.195312 -0.804688 7.546875 -0.398438 6.765625 -0.140625 C 5.992188 0.117188 5.222656 0.25 4.453125 0.25 C 3.660156 0.25 3.050781 0.179688 2.625 0.046875 C 2.195312 -0.078125 1.742188 -0.289062 1.265625 -0.59375 C 0.992188 -0.769531 0.78125 -0.859375 0.625 -0.859375 C 0.46875 -0.859375 0.34375 -0.796875 0.25 -0.671875 C 0.15625 -0.546875 0.0234375 -0.28125 -0.140625 0.125 L -0.515625 0.125 C -0.316406 -0.332031 -0.125 -0.890625 0.0625 -1.546875 C 0.25 -2.203125 0.472656 -3.113281 0.734375 -4.28125 L 1.109375 -4.28125 C 0.992188 -3.8125 0.9375 -3.378906 0.9375 -2.984375 C 0.9375 -2.054688 1.191406 -1.347656 1.703125 -0.859375 C 2.210938 -0.378906 2.957031 -0.140625 3.9375 -0.140625 C 5.507812 -0.140625 6.296875 -0.785156 6.296875 -2.078125 C 6.296875 -2.765625 6.132812 -3.378906 5.8125 -3.921875 C 5.488281 -4.460938 5.003906 -5.09375 4.359375 -5.8125 C 3.910156 -6.3125 3.554688 -6.726562 3.296875 -7.0625 C 3.046875 -7.40625 2.832031 -7.789062 2.65625 -8.21875 C 2.476562 -8.644531 2.390625 -9.101562 2.390625 -9.59375 C 2.390625 -10.375 2.613281 -11.039062 3.0625 -11.59375 C 3.507812 -12.15625 4.082031 -12.570312 4.78125 -12.84375 C 5.476562 -13.125 6.1875 -13.265625 6.90625 -13.265625 C 7.539062 -13.265625 8.082031 -13.191406 8.53125 -13.046875 C 8.988281 -12.898438 9.414062 -12.703125 9.8125 -12.453125 C 10.132812 -12.265625 10.335938 -12.171875 10.421875 -12.171875 C 10.515625 -12.171875 10.609375 -12.242188 10.703125 -12.390625 C 10.796875 -12.546875 10.90625 -12.796875 11.03125 -13.140625 Z M 11.390625 -13.140625 "/></g></g></g><g fill="#ffffff" fill-opacity="1"><g transform="translate(120.105688, 28.496815)"><g><path d="M 0.765625 -4.15625 C 0.765625 -5.539062 1.117188 -6.941406 1.828125 -8.359375 C 2.535156 -9.773438 3.523438 -10.945312 4.796875 -11.875 C 6.066406 -12.800781 7.5 -13.265625 9.09375 -13.265625 C 10.664062 -13.265625 11.890625 -12.878906 12.765625 -12.109375 C 13.648438 -11.335938 14.09375 -10.25 14.09375 -8.84375 C 14.09375 -7.457031 13.738281 -6.054688 13.03125 -4.640625 C 12.320312 -3.222656 11.328125 -2.050781 10.046875 -1.125 C 8.773438 -0.207031 7.34375 0.25 5.75 0.25 C 4.1875 0.25 2.960938 -0.132812 2.078125 -0.90625 C 1.203125 -1.675781 0.765625 -2.757812 0.765625 -4.15625 Z M 8.9375 -12.9375 C 8.101562 -12.9375 7.296875 -12.492188 6.515625 -11.609375 C 5.742188 -10.734375 5.117188 -9.59375 4.640625 -8.1875 C 4.171875 -6.789062 3.9375 -5.363281 3.9375 -3.90625 C 3.9375 -2.71875 4.117188 -1.78125 4.484375 -1.09375 C 4.847656 -0.414062 5.328125 -0.078125 5.921875 -0.078125 C 6.753906 -0.078125 7.554688 -0.515625 8.328125 -1.390625 C 9.097656 -2.273438 9.722656 -3.414062 10.203125 -4.8125 C 10.679688 -6.207031 10.921875 -7.632812 10.921875 -9.09375 C 10.921875 -10.28125 10.734375 -11.21875 10.359375 -11.90625 C 9.992188 -12.59375 9.519531 -12.9375 8.9375 -12.9375 Z M 8.9375 -12.9375 "/></g></g></g><g fill="#ffffff" fill-opacity="1"><g transform="translate(25.445267, 46.059892)"><g><path d="M 13.875 -13.171875 C 13.46875 -12.109375 13.070312 -10.679688 12.6875 -8.890625 L 12.28125 -8.890625 C 12.382812 -9.460938 12.4375 -9.953125 12.4375 -10.359375 C 12.4375 -10.929688 12.328125 -11.40625 12.109375 -11.78125 C 11.679688 -12.582031 10.953125 -12.984375 9.921875 -12.984375 C 8.929688 -12.984375 7.984375 -12.546875 7.078125 -11.671875 C 6.179688 -10.796875 5.460938 -9.660156 4.921875 -8.265625 C 4.378906 -6.867188 4.109375 -5.441406 4.109375 -3.984375 C 4.109375 -2.753906 4.328125 -1.832031 4.765625 -1.21875 C 5.210938 -0.601562 5.832031 -0.296875 6.625 -0.296875 C 7.09375 -0.296875 7.582031 -0.40625 8.09375 -0.625 C 8.601562 -0.84375 9.046875 -1.144531 9.421875 -1.53125 C 9.742188 -1.875 10.023438 -2.257812 10.265625 -2.6875 C 10.503906 -3.113281 10.78125 -3.707031 11.09375 -4.46875 L 11.5 -4.46875 C 10.914062 -2.320312 10.550781 -0.832031 10.40625 0 L 10 0 C 10.03125 -0.257812 10.046875 -0.46875 10.046875 -0.625 C 10.046875 -0.945312 9.96875 -1.109375 9.8125 -1.109375 C 9.707031 -1.109375 9.582031 -1.054688 9.4375 -0.953125 C 8.863281 -0.566406 8.289062 -0.265625 7.71875 -0.046875 C 7.144531 0.160156 6.5 0.265625 5.78125 0.265625 C 4.125 0.265625 2.878906 -0.128906 2.046875 -0.921875 C 1.210938 -1.722656 0.796875 -2.867188 0.796875 -4.359375 C 0.796875 -5.816406 1.179688 -7.25 1.953125 -8.65625 C 2.734375 -10.070312 3.804688 -11.222656 5.171875 -12.109375 C 6.535156 -12.992188 8.046875 -13.4375 9.703125 -13.4375 C 10.390625 -13.4375 10.9375 -13.328125 11.34375 -13.109375 C 11.75 -12.898438 12.125 -12.601562 12.46875 -12.21875 C 12.5625 -12.113281 12.65625 -12.0625 12.75 -12.0625 C 12.96875 -12.0625 13.210938 -12.429688 13.484375 -13.171875 Z M 13.875 -13.171875 "/></g></g></g><g fill="#ffffff" fill-opacity="1"><g transform="translate(38.338121, 46.059892)"><g><path d="M 11.96875 -10.125 C 12.164062 -10.851562 12.265625 -11.378906 12.265625 -11.703125 C 12.265625 -12.066406 12.15625 -12.320312 11.9375 -12.46875 C 11.726562 -12.625 11.363281 -12.734375 10.84375 -12.796875 L 10.9375 -13.171875 C 11.394531 -13.140625 12.0625 -13.125 12.9375 -13.125 C 13.613281 -13.125 14.160156 -13.140625 14.578125 -13.171875 L 14.484375 -12.796875 C 14.054688 -12.734375 13.722656 -12.628906 13.484375 -12.484375 C 13.253906 -12.335938 13.0625 -12.101562 12.90625 -11.78125 C 12.75 -11.457031 12.59375 -10.976562 12.4375 -10.34375 L 11.171875 -5.421875 C 10.722656 -3.703125 10.113281 -2.382812 9.34375 -1.46875 C 8.882812 -0.9375 8.320312 -0.515625 7.65625 -0.203125 C 6.988281 0.109375 6.28125 0.265625 5.53125 0.265625 C 4.625 0.265625 3.863281 0.140625 3.25 -0.109375 C 2.644531 -0.367188 2.191406 -0.734375 1.890625 -1.203125 C 1.554688 -1.691406 1.390625 -2.269531 1.390625 -2.9375 C 1.390625 -3.53125 1.53125 -4.335938 1.8125 -5.359375 L 3.34375 -11.203125 C 3.445312 -11.617188 3.5 -11.914062 3.5 -12.09375 C 3.5 -12.363281 3.40625 -12.539062 3.21875 -12.625 C 3.039062 -12.71875 2.71875 -12.773438 2.25 -12.796875 L 2.359375 -13.171875 C 2.992188 -13.140625 4.019531 -13.125 5.4375 -13.125 C 6.59375 -13.125 7.550781 -13.140625 8.3125 -13.171875 L 8.203125 -12.796875 C 7.742188 -12.773438 7.40625 -12.726562 7.1875 -12.65625 C 6.96875 -12.582031 6.789062 -12.4375 6.65625 -12.21875 C 6.53125 -12.007812 6.410156 -11.671875 6.296875 -11.203125 L 4.65625 -5.046875 C 4.351562 -3.953125 4.203125 -3.046875 4.203125 -2.328125 C 4.203125 -1.679688 4.335938 -1.195312 4.609375 -0.875 C 4.890625 -0.550781 5.3125 -0.390625 5.875 -0.390625 C 7.175781 -0.390625 8.203125 -0.8125 8.953125 -1.65625 C 9.710938 -2.5 10.289062 -3.679688 10.6875 -5.203125 Z M 11.96875 -10.125 "/></g></g></g><g fill="#ffffff" fill-opacity="1"><g transform="translate(51.24958, 46.059892)"><g><path d="M 10.453125 -3.90625 C 10.328125 -3.570312 10.179688 -3.0625 10.015625 -2.375 C 9.816406 -1.6875 9.648438 -0.894531 9.515625 0 C 8.671875 -0.0390625 7.257812 -0.0625 5.28125 -0.0625 C 2.582031 -0.0625 0.554688 -0.0390625 -0.796875 0 L -0.703125 -0.375 C -0.253906 -0.394531 0.0703125 -0.441406 0.28125 -0.515625 C 0.5 -0.585938 0.675781 -0.726562 0.8125 -0.9375 C 0.957031 -1.15625 1.085938 -1.5 1.203125 -1.96875 L 3.671875 -11.203125 C 3.765625 -11.617188 3.8125 -11.914062 3.8125 -12.09375 C 3.8125 -12.363281 3.722656 -12.539062 3.546875 -12.625 C 3.367188 -12.71875 3.039062 -12.773438 2.5625 -12.796875 L 2.65625 -13.171875 C 3.3125 -13.140625 4.335938 -13.125 5.734375 -13.125 C 6.898438 -13.125 7.867188 -13.140625 8.640625 -13.171875 L 8.546875 -12.796875 C 8.085938 -12.773438 7.75 -12.726562 7.53125 -12.65625 C 7.3125 -12.582031 7.132812 -12.4375 7 -12.21875 C 6.863281 -12.007812 6.734375 -11.671875 6.609375 -11.203125 L 4.15625 -1.96875 C 4.039062 -1.5 3.984375 -1.195312 3.984375 -1.0625 C 3.984375 -0.800781 4.070312 -0.628906 4.25 -0.546875 C 4.425781 -0.460938 4.753906 -0.421875 5.234375 -0.421875 L 5.96875 -0.421875 C 6.851562 -0.421875 7.628906 -0.691406 8.296875 -1.234375 C 8.960938 -1.773438 9.546875 -2.664062 10.046875 -3.90625 Z M 10.453125 -3.90625 "/></g></g></g><g fill="#ffffff" fill-opacity="1"><g transform="translate(62.505245, 46.059892)"><g><path d="M 4.171875 -1.96875 C 4.054688 -1.5 4 -1.195312 4 -1.0625 C 4 -0.800781 4.085938 -0.625 4.265625 -0.53125 C 4.453125 -0.445312 4.785156 -0.394531 5.265625 -0.375 L 5.1875 0 C 4.46875 -0.0390625 3.457031 -0.0625 2.15625 -0.0625 C 0.851562 -0.0625 -0.117188 -0.0390625 -0.765625 0 L -0.671875 -0.375 C -0.234375 -0.394531 0.0859375 -0.441406 0.296875 -0.515625 C 0.515625 -0.585938 0.691406 -0.734375 0.828125 -0.953125 C 0.960938 -1.171875 1.085938 -1.507812 1.203125 -1.96875 L 3.671875 -11.203125 C 3.765625 -11.617188 3.8125 -11.914062 3.8125 -12.09375 C 3.8125 -12.363281 3.722656 -12.539062 3.546875 -12.625 C 3.367188 -12.71875 3.039062 -12.773438 2.5625 -12.796875 L 2.65625 -13.171875 C 3.269531 -13.140625 4.242188 -13.125 5.578125 -13.125 C 6.804688 -13.125 7.828125 -13.140625 8.640625 -13.171875 L 8.546875 -12.796875 C 8.085938 -12.773438 7.75 -12.726562 7.53125 -12.65625 C 7.3125 -12.582031 7.132812 -12.4375 7 -12.21875 C 6.875 -12.007812 6.75 -11.671875 6.625 -11.203125 Z M 4.171875 -1.96875 "/></g></g></g><g fill="#ffffff" fill-opacity="1"><g transform="translate(69.760964, 46.059892)"><g><path d="M 15.59375 -14.03125 C 16.132812 -14.03125 16.5625 -13.878906 16.875 -13.578125 C 17.195312 -13.285156 17.359375 -12.910156 17.359375 -12.453125 C 17.359375 -11.960938 17.195312 -11.554688 16.875 -11.234375 C 16.550781 -10.910156 16.148438 -10.75 15.671875 -10.75 C 15.265625 -10.75 14.945312 -10.851562 14.71875 -11.0625 C 14.5 -11.269531 14.390625 -11.539062 14.390625 -11.875 C 14.390625 -12.28125 14.519531 -12.640625 14.78125 -12.953125 C 15.039062 -13.265625 15.375 -13.484375 15.78125 -13.609375 C 15.726562 -13.648438 15.628906 -13.671875 15.484375 -13.671875 C 14.890625 -13.671875 14.367188 -13.34375 13.921875 -12.6875 C 13.367188 -11.875 12.796875 -10.429688 12.203125 -8.359375 C 11.609375 -6.296875 10.929688 -3.476562 10.171875 0.09375 L 9.765625 0.09375 L 5.15625 -10.015625 C 4.625 -7.378906 4.117188 -5.160156 3.640625 -3.359375 C 3.160156 -1.566406 2.695312 -0.378906 2.25 0.203125 C 1.976562 0.566406 1.691406 0.851562 1.390625 1.0625 C 1.085938 1.269531 0.710938 1.375 0.265625 1.375 C -0.285156 1.375 -0.710938 1.222656 -1.015625 0.921875 C -1.328125 0.628906 -1.484375 0.253906 -1.484375 -0.203125 C -1.484375 -0.691406 -1.328125 -1.09375 -1.015625 -1.40625 C -0.703125 -1.726562 -0.296875 -1.890625 0.203125 -1.890625 C 0.597656 -1.890625 0.910156 -1.785156 1.140625 -1.578125 C 1.367188 -1.378906 1.484375 -1.113281 1.484375 -0.78125 C 1.484375 -0.375 1.347656 -0.015625 1.078125 0.296875 C 0.816406 0.609375 0.484375 0.828125 0.078125 0.953125 C 0.140625 1.003906 0.242188 1.03125 0.390625 1.03125 C 1.023438 1.03125 1.546875 0.691406 1.953125 0.015625 C 2.410156 -0.710938 2.882812 -2.019531 3.375 -3.90625 C 3.875 -5.789062 4.414062 -8.222656 5 -11.203125 C 5.082031 -11.566406 5.125 -11.847656 5.125 -12.046875 C 5.125 -12.335938 5.019531 -12.53125 4.8125 -12.625 C 4.613281 -12.71875 4.238281 -12.773438 3.6875 -12.796875 L 3.78125 -13.171875 C 4.175781 -13.140625 4.726562 -13.125 5.4375 -13.125 C 6.007812 -13.125 6.507812 -13.140625 6.9375 -13.171875 L 10.796875 -4.359375 C 11.835938 -8.804688 12.765625 -11.632812 13.578125 -12.84375 C 14.128906 -13.632812 14.800781 -14.03125 15.59375 -14.03125 Z M 15.59375 -14.03125 "/></g></g></g><g fill="#ffffff" fill-opacity="1"><g transform="translate(85.109601, 46.059892)"><g><path d="M 9.921875 -1.5625 C 9.953125 -1.15625 10.054688 -0.859375 10.234375 -0.671875 C 10.410156 -0.484375 10.609375 -0.382812 10.828125 -0.375 L 10.75 0 C 10.125 -0.0390625 9.226562 -0.0625 8.0625 -0.0625 C 6.789062 -0.0625 5.859375 -0.0390625 5.265625 0 L 5.34375 -0.375 C 5.757812 -0.394531 6.085938 -0.445312 6.328125 -0.53125 C 6.566406 -0.613281 6.734375 -0.757812 6.828125 -0.96875 C 6.929688 -1.1875 6.96875 -1.507812 6.9375 -1.9375 L 6.78125 -4.984375 L 2.75 -4.984375 L 1.109375 -2.65625 C 0.710938 -2.101562 0.515625 -1.644531 0.515625 -1.28125 C 0.515625 -0.988281 0.648438 -0.769531 0.921875 -0.625 C 1.191406 -0.476562 1.578125 -0.394531 2.078125 -0.375 L 1.984375 0 C 0.941406 -0.0390625 0.140625 -0.0625 -0.421875 -0.0625 C -0.878906 -0.0625 -1.3125 -0.0390625 -1.71875 0 L -1.640625 -0.375 C -1.316406 -0.457031 -1 -0.640625 -0.6875 -0.921875 C -0.382812 -1.210938 0 -1.6875 0.46875 -2.34375 L 8.21875 -13.265625 C 8.332031 -13.253906 8.492188 -13.25 8.703125 -13.25 C 8.929688 -13.25 9.085938 -13.253906 9.171875 -13.265625 Z M 6.75 -5.359375 L 6.515625 -10.296875 L 3.015625 -5.359375 Z M 6.75 -5.359375 "/></g></g></g><g fill="#ffffff" fill-opacity="1"><g transform="translate(97.258276, 46.059892)"><g><path d="M 12.1875 -2.25 L 12.609375 -2.25 L 12.546875 -2.015625 C 12.304688 -1.234375 11.960938 -0.65625 11.515625 -0.28125 C 11.066406 0.0820312 10.460938 0.265625 9.703125 0.265625 C 8.941406 0.265625 8.367188 0.101562 7.984375 -0.21875 C 7.609375 -0.539062 7.421875 -0.984375 7.421875 -1.546875 C 7.421875 -1.703125 7.425781 -1.816406 7.4375 -1.890625 L 7.71875 -4.015625 C 7.75 -4.316406 7.765625 -4.523438 7.765625 -4.640625 C 7.765625 -5.203125 7.585938 -5.617188 7.234375 -5.890625 C 6.878906 -6.160156 6.242188 -6.304688 5.328125 -6.328125 L 4.171875 -1.96875 C 4.046875 -1.539062 3.984375 -1.238281 3.984375 -1.0625 C 3.984375 -0.820312 4.078125 -0.648438 4.265625 -0.546875 C 4.453125 -0.441406 4.78125 -0.382812 5.25 -0.375 L 5.171875 0 C 4.429688 -0.0390625 3.460938 -0.0625 2.265625 -0.0625 C 0.890625 -0.0625 -0.125 -0.0390625 -0.78125 0 L -0.703125 -0.375 C -0.253906 -0.394531 0.078125 -0.441406 0.296875 -0.515625 C 0.515625 -0.585938 0.691406 -0.726562 0.828125 -0.9375 C 0.960938 -1.15625 1.085938 -1.5 1.203125 -1.96875 L 3.640625 -11.203125 C 3.753906 -11.648438 3.8125 -11.941406 3.8125 -12.078125 C 3.8125 -12.328125 3.722656 -12.503906 3.546875 -12.609375 C 3.367188 -12.722656 3.039062 -12.785156 2.5625 -12.796875 L 2.65625 -13.171875 C 3.289062 -13.140625 4.226562 -13.125 5.46875 -13.125 L 7.078125 -13.140625 C 7.359375 -13.148438 7.753906 -13.15625 8.265625 -13.15625 C 9.773438 -13.15625 10.890625 -12.941406 11.609375 -12.515625 C 12.335938 -12.097656 12.703125 -11.445312 12.703125 -10.5625 C 12.703125 -9.476562 12.207031 -8.566406 11.21875 -7.828125 C 10.238281 -7.085938 8.910156 -6.625 7.234375 -6.4375 C 8.367188 -6.320312 9.226562 -6.113281 9.8125 -5.8125 C 10.394531 -5.519531 10.6875 -5.007812 10.6875 -4.28125 C 10.6875 -4.207031 10.671875 -4.070312 10.640625 -3.875 L 10.390625 -1.953125 C 10.367188 -1.859375 10.359375 -1.722656 10.359375 -1.546875 C 10.359375 -0.953125 10.554688 -0.65625 10.953125 -0.65625 C 11.191406 -0.65625 11.394531 -0.757812 11.5625 -0.96875 C 11.738281 -1.1875 11.914062 -1.523438 12.09375 -1.984375 Z M 5.390625 -6.65625 L 5.546875 -6.65625 C 6.796875 -6.65625 7.800781 -7.023438 8.5625 -7.765625 C 9.332031 -8.503906 9.71875 -9.53125 9.71875 -10.84375 C 9.71875 -11.519531 9.570312 -12.015625 9.28125 -12.328125 C 9 -12.640625 8.566406 -12.796875 7.984375 -12.796875 C 7.609375 -12.796875 7.332031 -12.710938 7.15625 -12.546875 C 6.976562 -12.378906 6.828125 -12.054688 6.703125 -11.578125 Z M 5.390625 -6.65625 "/></g></g></g><g fill="#ffffff" fill-opacity="1"><g transform="translate(110.486009, 46.059892)"><g><path d="M 4.171875 -1.96875 C 4.054688 -1.5 4 -1.195312 4 -1.0625 C 4 -0.800781 4.085938 -0.625 4.265625 -0.53125 C 4.453125 -0.445312 4.785156 -0.394531 5.265625 -0.375 L 5.1875 0 C 4.46875 -0.0390625 3.457031 -0.0625 2.15625 -0.0625 C 0.851562 -0.0625 -0.117188 -0.0390625 -0.765625 0 L -0.671875 -0.375 C -0.234375 -0.394531 0.0859375 -0.441406 0.296875 -0.515625 C 0.515625 -0.585938 0.691406 -0.734375 0.828125 -0.953125 C 0.960938 -1.171875 1.085938 -1.507812 1.203125 -1.96875 L 3.671875 -11.203125 C 3.765625 -11.617188 3.8125 -11.914062 3.8125 -12.09375 C 3.8125 -12.363281 3.722656 -12.539062 3.546875 -12.625 C 3.367188 -12.71875 3.039062 -12.773438 2.5625 -12.796875 L 2.65625 -13.171875 C 3.269531 -13.140625 4.242188 -13.125 5.578125 -13.125 C 6.804688 -13.125 7.828125 -13.140625 8.640625 -13.171875 L 8.546875 -12.796875 C 8.085938 -12.773438 7.75 -12.726562 7.53125 -12.65625 C 7.3125 -12.582031 7.132812 -12.4375 7 -12.21875 C 6.875 -12.007812 6.75 -11.671875 6.625 -11.203125 Z M 4.171875 -1.96875 "/></g></g></g><g fill="#ffffff" fill-opacity="1"><g transform="translate(117.741728, 46.059892)"><g><path d="M 0.78125 -4.203125 C 0.78125 -5.609375 1.132812 -7.03125 1.84375 -8.46875 C 2.5625 -9.90625 3.566406 -11.09375 4.859375 -12.03125 C 6.148438 -12.96875 7.601562 -13.4375 9.21875 -13.4375 C 10.800781 -13.4375 12.035156 -13.046875 12.921875 -12.265625 C 13.816406 -11.484375 14.265625 -10.378906 14.265625 -8.953125 C 14.265625 -7.546875 13.90625 -6.125 13.1875 -4.6875 C 12.46875 -3.257812 11.460938 -2.078125 10.171875 -1.140625 C 8.890625 -0.203125 7.441406 0.265625 5.828125 0.265625 C 4.234375 0.265625 2.992188 -0.125 2.109375 -0.90625 C 1.222656 -1.6875 0.78125 -2.785156 0.78125 -4.203125 Z M 9.046875 -13.09375 C 8.203125 -13.09375 7.390625 -12.644531 6.609375 -11.75 C 5.828125 -10.863281 5.191406 -9.710938 4.703125 -8.296875 C 4.222656 -6.878906 3.984375 -5.4375 3.984375 -3.96875 C 3.984375 -2.757812 4.164062 -1.804688 4.53125 -1.109375 C 4.90625 -0.421875 5.394531 -0.078125 6 -0.078125 C 6.832031 -0.078125 7.640625 -0.519531 8.421875 -1.40625 C 9.210938 -2.300781 9.847656 -3.457031 10.328125 -4.875 C 10.804688 -6.289062 11.046875 -7.738281 11.046875 -9.21875 C 11.046875 -10.414062 10.859375 -11.359375 10.484375 -12.046875 C 10.117188 -12.742188 9.640625 -13.09375 9.046875 -13.09375 Z M 9.046875 -13.09375 "/></g></g></g></svg>