<svg xmlns="http://www.w3.org/2000/svg" xmlns:xlink="http://www.w3.org/1999/xlink" width="200" zoomAndPan="magnify" viewBox="0 0 150 60" height="80" preserveAspectRatio="xMidYMid meet" version="1.0"><defs><g/></defs><g fill="#ffffff" fill-opacity="1"><g transform="translate(4.713818, 27.422185)"><g/></g></g><g fill="#ffffff" fill-opacity="1"><g transform="translate(9.427636, 27.422185)"><g/></g></g><g fill="#ffffff" fill-opacity="1"><g transform="translate(14.140902, 27.422185)"><g><path d="M 15.34375 -13.03125 C 16.519531 -13.03125 17.507812 -13.050781 18.3125 -13.09375 L 18.21875 -12.71875 C 17.769531 -12.695312 17.4375 -12.644531 17.21875 -12.5625 C 17 -12.488281 16.820312 -12.347656 16.6875 -12.140625 C 16.5625 -11.929688 16.441406 -11.59375 16.328125 -11.125 L 13.875 -1.953125 C 13.78125 -1.535156 13.734375 -1.242188 13.734375 -1.078125 C 13.734375 -0.804688 13.820312 -0.625 14 -0.53125 C 14.175781 -0.445312 14.5 -0.394531 14.96875 -0.375 L 14.890625 0 C 14.117188 -0.0390625 13.132812 -0.0625 11.9375 -0.0625 C 10.59375 -0.0625 9.609375 -0.0390625 8.984375 0 L 9.0625 -0.375 C 9.507812 -0.394531 9.84375 -0.441406 10.0625 -0.515625 C 10.28125 -0.585938 10.453125 -0.726562 10.578125 -0.9375 C 10.710938 -1.144531 10.84375 -1.484375 10.96875 -1.953125 L 13.640625 -11.921875 L 5.96875 0.09375 L 5.5625 0.09375 L 4.0625 -11.25 L 1.734375 -2.390625 C 1.640625 -2.023438 1.59375 -1.722656 1.59375 -1.484375 C 1.59375 -1.117188 1.707031 -0.84375 1.9375 -0.65625 C 2.175781 -0.476562 2.570312 -0.382812 3.125 -0.375 L 3.046875 0 C 2.609375 -0.0390625 1.921875 -0.0625 0.984375 -0.0625 C 0.242188 -0.0625 -0.34375 -0.0390625 -0.78125 0 L -0.6875 -0.375 C -0.09375 -0.394531 0.347656 -0.570312 0.640625 -0.90625 C 0.929688 -1.238281 1.15625 -1.734375 1.3125 -2.390625 L 3.65625 -11.125 C 3.757812 -11.539062 3.8125 -11.835938 3.8125 -12.015625 C 3.8125 -12.285156 3.71875 -12.460938 3.53125 -12.546875 C 3.351562 -12.640625 3.03125 -12.695312 2.5625 -12.71875 L 2.65625 -13.09375 C 3.21875 -13.050781 4.0625 -13.03125 5.1875 -13.03125 C 5.832031 -13.03125 6.390625 -13.050781 6.859375 -13.09375 L 7.90625 -3.640625 L 13.90625 -13.03125 Z M 15.34375 -13.03125 "/></g></g></g><g fill="#ffffff" fill-opacity="1"><g transform="translate(31.092164, 27.422185)"><g><path d="M 11.890625 -10.0625 C 12.085938 -10.78125 12.1875 -11.300781 12.1875 -11.625 C 12.1875 -11.976562 12.078125 -12.234375 11.859375 -12.390625 C 11.648438 -12.546875 11.289062 -12.65625 10.78125 -12.71875 L 10.875 -13.09375 C 11.320312 -13.050781 11.976562 -13.03125 12.84375 -13.03125 C 13.519531 -13.03125 14.0625 -13.050781 14.46875 -13.09375 L 14.375 -12.71875 C 13.957031 -12.65625 13.628906 -12.550781 13.390625 -12.40625 C 13.160156 -12.257812 12.96875 -12.023438 12.8125 -11.703125 C 12.664062 -11.378906 12.507812 -10.90625 12.34375 -10.28125 L 11.09375 -5.375 C 10.644531 -3.675781 10.039062 -2.367188 9.28125 -1.453125 C 8.820312 -0.929688 8.265625 -0.515625 7.609375 -0.203125 C 6.953125 0.109375 6.242188 0.265625 5.484375 0.265625 C 4.585938 0.265625 3.835938 0.140625 3.234375 -0.109375 C 2.628906 -0.367188 2.179688 -0.734375 1.890625 -1.203125 C 1.554688 -1.679688 1.390625 -2.253906 1.390625 -2.921875 C 1.390625 -3.515625 1.523438 -4.316406 1.796875 -5.328125 L 3.328125 -11.125 C 3.421875 -11.539062 3.46875 -11.835938 3.46875 -12.015625 C 3.46875 -12.285156 3.378906 -12.460938 3.203125 -12.546875 C 3.023438 -12.640625 2.703125 -12.695312 2.234375 -12.71875 L 2.34375 -13.09375 C 2.976562 -13.050781 3.992188 -13.03125 5.390625 -13.03125 C 6.535156 -13.03125 7.492188 -13.050781 8.265625 -13.09375 L 8.15625 -12.71875 C 7.695312 -12.695312 7.359375 -12.644531 7.140625 -12.5625 C 6.929688 -12.488281 6.757812 -12.347656 6.625 -12.140625 C 6.5 -11.929688 6.375 -11.59375 6.25 -11.125 L 4.625 -5.015625 C 4.320312 -3.921875 4.171875 -3.019531 4.171875 -2.3125 C 4.171875 -1.664062 4.304688 -1.179688 4.578125 -0.859375 C 4.847656 -0.546875 5.269531 -0.390625 5.84375 -0.390625 C 7.132812 -0.390625 8.148438 -0.804688 8.890625 -1.640625 C 9.640625 -2.484375 10.210938 -3.660156 10.609375 -5.171875 Z M 11.890625 -10.0625 "/></g></g></g><g fill="#ffffff" fill-opacity="1"><g transform="translate(43.921146, 27.422185)"><g><path d="M 10.390625 -3.875 C 10.265625 -3.539062 10.113281 -3.035156 9.9375 -2.359375 C 9.75 -1.671875 9.585938 -0.882812 9.453125 0 C 8.609375 -0.0390625 7.207031 -0.0625 5.25 -0.0625 C 2.5625 -0.0625 0.546875 -0.0390625 -0.796875 0 L -0.703125 -0.375 C -0.253906 -0.394531 0.0703125 -0.441406 0.28125 -0.515625 C 0.5 -0.585938 0.675781 -0.726562 0.8125 -0.9375 C 0.945312 -1.144531 1.078125 -1.484375 1.203125 -1.953125 L 3.640625 -11.125 C 3.742188 -11.539062 3.796875 -11.835938 3.796875 -12.015625 C 3.796875 -12.285156 3.703125 -12.460938 3.515625 -12.546875 C 3.335938 -12.640625 3.015625 -12.695312 2.546875 -12.71875 L 2.640625 -13.09375 C 3.296875 -13.050781 4.3125 -13.03125 5.6875 -13.03125 C 6.851562 -13.03125 7.816406 -13.050781 8.578125 -13.09375 L 8.484375 -12.71875 C 8.023438 -12.695312 7.6875 -12.644531 7.46875 -12.5625 C 7.257812 -12.488281 7.085938 -12.347656 6.953125 -12.140625 C 6.816406 -11.929688 6.6875 -11.59375 6.5625 -11.125 L 4.125 -1.953125 C 4.007812 -1.484375 3.953125 -1.179688 3.953125 -1.046875 C 3.953125 -0.796875 4.039062 -0.628906 4.21875 -0.546875 C 4.394531 -0.460938 4.71875 -0.421875 5.1875 -0.421875 L 5.9375 -0.421875 C 6.8125 -0.421875 7.578125 -0.6875 8.234375 -1.21875 C 8.898438 -1.757812 9.484375 -2.644531 9.984375 -3.875 Z M 10.390625 -3.875 "/></g></g></g><g fill="#ffffff" fill-opacity="1"><g transform="translate(55.104913, 27.422185)"><g><path d="M 14.4375 -15.859375 C 14.863281 -15.859375 15.207031 -15.734375 15.46875 -15.484375 C 15.726562 -15.234375 15.859375 -14.925781 15.859375 -14.5625 C 15.859375 -13.8125 15.429688 -13.226562 14.578125 -12.8125 C 13.828125 -12.457031 12.800781 -12.28125 11.5 -12.28125 C 11.28125 -12.28125 10.921875 -12.289062 10.421875 -12.3125 L 7.703125 -2.140625 C 7.609375 -1.773438 7.5625 -1.492188 7.5625 -1.296875 C 7.5625 -0.972656 7.675781 -0.742188 7.90625 -0.609375 C 8.132812 -0.472656 8.53125 -0.394531 9.09375 -0.375 L 9.015625 0 C 8.242188 -0.0390625 7.101562 -0.0625 5.59375 -0.0625 C 4.132812 -0.0625 3.050781 -0.0390625 2.34375 0 L 2.421875 -0.375 C 2.953125 -0.394531 3.359375 -0.457031 3.640625 -0.5625 C 3.929688 -0.664062 4.160156 -0.835938 4.328125 -1.078125 C 4.492188 -1.316406 4.640625 -1.671875 4.765625 -2.140625 L 7.5625 -12.59375 C 6.632812 -12.675781 5.894531 -12.71875 5.34375 -12.71875 C 4.320312 -12.71875 3.625 -12.613281 3.25 -12.40625 C 3.570312 -12.300781 3.835938 -12.113281 4.046875 -11.84375 C 4.253906 -11.582031 4.359375 -11.269531 4.359375 -10.90625 C 4.359375 -10.476562 4.222656 -10.113281 3.953125 -9.8125 C 3.679688 -9.507812 3.335938 -9.359375 2.921875 -9.359375 C 2.515625 -9.359375 2.191406 -9.492188 1.953125 -9.765625 C 1.710938 -10.046875 1.59375 -10.394531 1.59375 -10.8125 C 1.59375 -11.15625 1.6875 -11.488281 1.875 -11.8125 C 2.0625 -12.132812 2.367188 -12.398438 2.796875 -12.609375 C 3.398438 -12.898438 4.222656 -13.046875 5.265625 -13.046875 C 6.078125 -13.046875 7.222656 -12.972656 8.703125 -12.828125 C 10.054688 -12.703125 11.039062 -12.640625 11.65625 -12.640625 C 12.488281 -12.640625 13.144531 -12.722656 13.625 -12.890625 C 13.4375 -13.054688 13.28125 -13.265625 13.15625 -13.515625 C 13.03125 -13.773438 12.96875 -14.050781 12.96875 -14.34375 C 12.96875 -14.789062 13.097656 -15.15625 13.359375 -15.4375 C 13.628906 -15.71875 13.988281 -15.859375 14.4375 -15.859375 Z M 14.4375 -15.859375 "/></g></g></g><g fill="#ffffff" fill-opacity="1"><g transform="translate(67.693584, 27.422185)"><g><path d="M 4.140625 -1.953125 C 4.023438 -1.484375 3.96875 -1.179688 3.96875 -1.046875 C 3.96875 -0.796875 4.054688 -0.625 4.234375 -0.53125 C 4.421875 -0.445312 4.753906 -0.394531 5.234375 -0.375 L 5.15625 0 C 4.4375 -0.0390625 3.429688 -0.0625 2.140625 -0.0625 C 0.847656 -0.0625 -0.117188 -0.0390625 -0.765625 0 L -0.671875 -0.375 C -0.234375 -0.394531 0.0859375 -0.441406 0.296875 -0.515625 C 0.515625 -0.585938 0.6875 -0.734375 0.8125 -0.953125 C 0.945312 -1.171875 1.078125 -1.503906 1.203125 -1.953125 L 3.640625 -11.125 C 3.742188 -11.539062 3.796875 -11.835938 3.796875 -12.015625 C 3.796875 -12.285156 3.703125 -12.460938 3.515625 -12.546875 C 3.335938 -12.640625 3.015625 -12.695312 2.546875 -12.71875 L 2.640625 -13.09375 C 3.242188 -13.050781 4.210938 -13.03125 5.546875 -13.03125 C 6.765625 -13.03125 7.773438 -13.050781 8.578125 -13.09375 L 8.484375 -12.71875 C 8.023438 -12.695312 7.6875 -12.644531 7.46875 -12.5625 C 7.257812 -12.488281 7.085938 -12.347656 6.953125 -12.140625 C 6.828125 -11.929688 6.703125 -11.59375 6.578125 -11.125 Z M 4.140625 -1.953125 "/></g></g></g><g fill="#ffffff" fill-opacity="1"><g transform="translate(74.902954, 27.422185)"><g><path d="M 13.03125 -13.03125 C 13.5625 -13.03125 14.023438 -13.050781 14.421875 -13.09375 L 14.328125 -12.71875 C 13.921875 -12.601562 13.550781 -12.40625 13.21875 -12.125 C 12.894531 -11.851562 12.53125 -11.398438 12.125 -10.765625 L 5.0625 0.09375 L 4.609375 0.078125 L 4.125 0.09375 L 2.65625 -11.53125 C 2.613281 -11.9375 2.492188 -12.234375 2.296875 -12.421875 C 2.109375 -12.609375 1.910156 -12.707031 1.703125 -12.71875 L 1.796875 -13.09375 C 2.421875 -13.050781 3.304688 -13.03125 4.453125 -13.03125 C 5.703125 -13.03125 6.644531 -13.050781 7.28125 -13.09375 L 7.1875 -12.71875 C 6.632812 -12.695312 6.242188 -12.613281 6.015625 -12.46875 C 5.796875 -12.320312 5.6875 -12.035156 5.6875 -11.609375 C 5.6875 -11.421875 5.695312 -11.273438 5.71875 -11.171875 L 6.640625 -2.96875 L 11.5 -10.4375 C 11.863281 -11.007812 12.046875 -11.46875 12.046875 -11.8125 C 12.046875 -12.101562 11.914062 -12.320312 11.65625 -12.46875 C 11.40625 -12.613281 11.023438 -12.695312 10.515625 -12.71875 L 10.609375 -13.09375 C 11.085938 -13.050781 11.894531 -13.03125 13.03125 -13.03125 Z M 13.03125 -13.03125 "/></g></g></g><g fill="#ffffff" fill-opacity="1"><g transform="translate(87.121915, 27.422185)"><g><path d="M 8.65625 -13.03125 C 10.40625 -13.03125 11.65625 -13.050781 12.40625 -13.09375 C 12.0625 -12.15625 11.828125 -11.425781 11.703125 -10.90625 C 11.640625 -10.632812 11.554688 -10.253906 11.453125 -9.765625 L 11.046875 -9.765625 C 11.066406 -9.921875 11.078125 -10.140625 11.078125 -10.421875 C 11.078125 -11.242188 10.921875 -11.820312 10.609375 -12.15625 C 10.296875 -12.488281 9.765625 -12.65625 9.015625 -12.65625 L 8.453125 -12.65625 C 8.015625 -12.65625 7.6875 -12.617188 7.46875 -12.546875 C 7.257812 -12.484375 7.085938 -12.347656 6.953125 -12.140625 C 6.828125 -11.929688 6.703125 -11.59375 6.578125 -11.125 L 5.421875 -6.765625 L 6.09375 -6.765625 C 6.71875 -6.765625 7.238281 -6.976562 7.65625 -7.40625 C 8.070312 -7.84375 8.394531 -8.367188 8.625 -8.984375 L 9.0625 -8.984375 C 8.820312 -8.285156 8.628906 -7.640625 8.484375 -7.046875 L 8.375 -6.578125 C 8.226562 -6.003906 8.050781 -5.203125 7.84375 -4.171875 L 7.4375 -4.171875 C 7.445312 -4.265625 7.453125 -4.398438 7.453125 -4.578125 C 7.453125 -5.785156 6.929688 -6.390625 5.890625 -6.390625 L 5.328125 -6.390625 L 4.140625 -1.953125 C 4.023438 -1.578125 3.96875 -1.273438 3.96875 -1.046875 C 3.96875 -0.796875 4.054688 -0.628906 4.234375 -0.546875 C 4.421875 -0.460938 4.738281 -0.421875 5.1875 -0.421875 L 5.875 -0.421875 C 6.539062 -0.421875 7.101562 -0.519531 7.5625 -0.71875 C 8.019531 -0.925781 8.425781 -1.265625 8.78125 -1.734375 C 9.132812 -2.203125 9.5 -2.859375 9.875 -3.703125 L 10.296875 -3.703125 C 10.160156 -3.335938 10.023438 -2.890625 9.890625 -2.359375 C 9.679688 -1.640625 9.519531 -0.851562 9.40625 0 C 8.570312 -0.0390625 7.175781 -0.0625 5.21875 -0.0625 C 2.550781 -0.0625 0.546875 -0.0390625 -0.796875 0 L -0.703125 -0.375 C -0.253906 -0.394531 0.0703125 -0.441406 0.28125 -0.515625 C 0.5 -0.585938 0.675781 -0.726562 0.8125 -0.9375 C 0.945312 -1.144531 1.078125 -1.484375 1.203125 -1.953125 L 3.640625 -11.125 C 3.742188 -11.539062 3.796875 -11.835938 3.796875 -12.015625 C 3.796875 -12.285156 3.703125 -12.460938 3.515625 -12.546875 C 3.335938 -12.640625 3.015625 -12.695312 2.546875 -12.71875 L 2.640625 -13.09375 C 3.984375 -13.050781 5.988281 -13.03125 8.65625 -13.03125 Z M 8.65625 -13.03125 "/></g></g></g><g fill="#ffffff" fill-opacity="1"><g transform="translate(98.69388, 27.422185)"><g><path d="M 12.109375 -2.234375 L 12.53125 -2.234375 L 12.453125 -2 C 12.222656 -1.21875 11.882812 -0.644531 11.4375 -0.28125 C 11 0.0820312 10.394531 0.265625 9.625 0.265625 C 8.875 0.265625 8.3125 0.101562 7.9375 -0.21875 C 7.5625 -0.539062 7.375 -0.976562 7.375 -1.53125 C 7.375 -1.695312 7.378906 -1.816406 7.390625 -1.890625 L 7.671875 -4 C 7.691406 -4.289062 7.703125 -4.492188 7.703125 -4.609375 C 7.703125 -5.171875 7.523438 -5.582031 7.171875 -5.84375 C 6.828125 -6.113281 6.195312 -6.257812 5.28125 -6.28125 L 4.140625 -1.953125 C 4.015625 -1.523438 3.953125 -1.222656 3.953125 -1.046875 C 3.953125 -0.816406 4.046875 -0.648438 4.234375 -0.546875 C 4.421875 -0.441406 4.75 -0.382812 5.21875 -0.375 L 5.140625 0 C 4.398438 -0.0390625 3.4375 -0.0625 2.25 -0.0625 C 0.882812 -0.0625 -0.125 -0.0390625 -0.78125 0 L -0.703125 -0.375 C -0.253906 -0.394531 0.078125 -0.441406 0.296875 -0.515625 C 0.515625 -0.585938 0.6875 -0.726562 0.8125 -0.9375 C 0.945312 -1.144531 1.078125 -1.484375 1.203125 -1.953125 L 3.625 -11.125 C 3.738281 -11.570312 3.796875 -11.863281 3.796875 -12 C 3.796875 -12.238281 3.703125 -12.414062 3.515625 -12.53125 C 3.335938 -12.644531 3.015625 -12.707031 2.546875 -12.71875 L 2.640625 -13.09375 C 3.273438 -13.050781 4.207031 -13.03125 5.4375 -13.03125 L 7.03125 -13.046875 C 7.3125 -13.054688 7.703125 -13.0625 8.203125 -13.0625 C 9.710938 -13.0625 10.828125 -12.851562 11.546875 -12.4375 C 12.265625 -12.019531 12.625 -11.375 12.625 -10.5 C 12.625 -9.414062 12.132812 -8.503906 11.15625 -7.765625 C 10.175781 -7.035156 8.851562 -6.578125 7.1875 -6.390625 C 8.3125 -6.285156 9.160156 -6.082031 9.734375 -5.78125 C 10.316406 -5.488281 10.609375 -4.976562 10.609375 -4.25 C 10.609375 -4.175781 10.597656 -4.039062 10.578125 -3.84375 L 10.3125 -1.9375 C 10.300781 -1.84375 10.296875 -1.707031 10.296875 -1.53125 C 10.296875 -0.9375 10.492188 -0.640625 10.890625 -0.640625 C 11.117188 -0.640625 11.316406 -0.75 11.484375 -0.96875 C 11.660156 -1.1875 11.835938 -1.523438 12.015625 -1.984375 Z M 5.359375 -6.625 L 5.515625 -6.625 C 6.753906 -6.625 7.753906 -6.988281 8.515625 -7.71875 C 9.273438 -8.445312 9.65625 -9.46875 9.65625 -10.78125 C 9.65625 -11.445312 9.507812 -11.9375 9.21875 -12.25 C 8.9375 -12.5625 8.507812 -12.71875 7.9375 -12.71875 C 7.5625 -12.71875 7.285156 -12.632812 7.109375 -12.46875 C 6.929688 -12.300781 6.78125 -11.976562 6.65625 -11.5 Z M 5.359375 -6.625 "/></g></g></g><g fill="#ffffff" fill-opacity="1"><g transform="translate(111.837115, 27.422185)"><g><path d="M 11.453125 -13.21875 C 10.992188 -12.03125 10.632812 -10.773438 10.375 -9.453125 L 10 -9.453125 C 10.070312 -9.804688 10.109375 -10.148438 10.109375 -10.484375 C 10.109375 -11.222656 9.878906 -11.8125 9.421875 -12.25 C 8.972656 -12.6875 8.320312 -12.90625 7.46875 -12.90625 C 6.800781 -12.90625 6.257812 -12.738281 5.84375 -12.40625 C 5.4375 -12.070312 5.234375 -11.566406 5.234375 -10.890625 C 5.234375 -10.316406 5.398438 -9.78125 5.734375 -9.28125 C 6.078125 -8.789062 6.59375 -8.175781 7.28125 -7.4375 C 7.800781 -6.894531 8.207031 -6.4375 8.5 -6.0625 C 8.800781 -5.695312 9.054688 -5.289062 9.265625 -4.84375 C 9.472656 -4.394531 9.578125 -3.925781 9.578125 -3.4375 C 9.578125 -2.613281 9.3125 -1.921875 8.78125 -1.359375 C 8.25 -0.804688 7.59375 -0.394531 6.8125 -0.125 C 6.03125 0.132812 5.25 0.265625 4.46875 0.265625 C 3.6875 0.265625 3.078125 0.195312 2.640625 0.0625 C 2.210938 -0.0703125 1.757812 -0.289062 1.28125 -0.59375 C 1.007812 -0.78125 0.789062 -0.875 0.625 -0.875 C 0.46875 -0.875 0.34375 -0.804688 0.25 -0.671875 C 0.15625 -0.546875 0.0234375 -0.28125 -0.140625 0.125 L -0.515625 0.125 C -0.316406 -0.34375 -0.125 -0.90625 0.0625 -1.5625 C 0.25 -2.21875 0.472656 -3.132812 0.734375 -4.3125 L 1.109375 -4.3125 C 0.992188 -3.84375 0.9375 -3.40625 0.9375 -3 C 0.9375 -2.070312 1.191406 -1.363281 1.703125 -0.875 C 2.222656 -0.382812 2.972656 -0.140625 3.953125 -0.140625 C 5.546875 -0.140625 6.34375 -0.789062 6.34375 -2.09375 C 6.34375 -2.78125 6.175781 -3.394531 5.84375 -3.9375 C 5.519531 -4.488281 5.03125 -5.125 4.375 -5.84375 C 3.9375 -6.34375 3.585938 -6.757812 3.328125 -7.09375 C 3.066406 -7.4375 2.847656 -7.820312 2.671875 -8.25 C 2.492188 -8.6875 2.40625 -9.15625 2.40625 -9.65625 C 2.40625 -10.4375 2.628906 -11.109375 3.078125 -11.671875 C 3.523438 -12.234375 4.097656 -12.648438 4.796875 -12.921875 C 5.503906 -13.203125 6.222656 -13.34375 6.953125 -13.34375 C 7.585938 -13.34375 8.132812 -13.269531 8.59375 -13.125 C 9.050781 -12.976562 9.476562 -12.78125 9.875 -12.53125 C 10.1875 -12.332031 10.390625 -12.234375 10.484375 -12.234375 C 10.578125 -12.234375 10.671875 -12.3125 10.765625 -12.46875 C 10.859375 -12.625 10.96875 -12.875 11.09375 -13.21875 Z M 11.453125 -13.21875 "/></g></g></g><g fill="#ffffff" fill-opacity="1"><g transform="translate(122.688139, 27.422185)"><g><path d="M 0.78125 -4.171875 C 0.78125 -5.566406 1.132812 -6.976562 1.84375 -8.40625 C 2.550781 -9.832031 3.546875 -11.007812 4.828125 -11.9375 C 6.109375 -12.875 7.550781 -13.34375 9.15625 -13.34375 C 10.726562 -13.34375 11.957031 -12.953125 12.84375 -12.171875 C 13.726562 -11.398438 14.171875 -10.304688 14.171875 -8.890625 C 14.171875 -7.492188 13.8125 -6.082031 13.09375 -4.65625 C 12.382812 -3.238281 11.390625 -2.0625 10.109375 -1.125 C 8.828125 -0.195312 7.382812 0.265625 5.78125 0.265625 C 4.207031 0.265625 2.976562 -0.117188 2.09375 -0.890625 C 1.21875 -1.671875 0.78125 -2.765625 0.78125 -4.171875 Z M 8.984375 -13.015625 C 8.140625 -13.015625 7.328125 -12.566406 6.546875 -11.671875 C 5.773438 -10.785156 5.148438 -9.640625 4.671875 -8.234375 C 4.191406 -6.835938 3.953125 -5.40625 3.953125 -3.9375 C 3.953125 -2.738281 4.132812 -1.796875 4.5 -1.109375 C 4.875 -0.421875 5.359375 -0.078125 5.953125 -0.078125 C 6.785156 -0.078125 7.585938 -0.519531 8.359375 -1.40625 C 9.140625 -2.289062 9.769531 -3.4375 10.25 -4.84375 C 10.738281 -6.25 10.984375 -7.6875 10.984375 -9.15625 C 10.984375 -10.34375 10.796875 -11.28125 10.421875 -11.96875 C 10.054688 -12.664062 9.578125 -13.015625 8.984375 -13.015625 Z M 8.984375 -13.015625 "/></g></g></g><g fill="#ffffff" fill-opacity="1"><g transform="translate(4.713818, 46.037033)"><g/></g></g><g fill="#ffffff" fill-opacity="1"><g transform="translate(9.427636, 46.037033)"><g/></g></g><g fill="#ffffff" fill-opacity="1"><g transform="translate(14.141455, 46.037033)"><g/></g></g><g fill="#ffffff" fill-opacity="1"><g transform="translate(18.855209, 46.037033)"><g><path d="M 13.796875 -13.09375 C 13.378906 -12.03125 12.984375 -10.609375 12.609375 -8.828125 L 12.203125 -8.828125 C 12.296875 -9.398438 12.34375 -9.890625 12.34375 -10.296875 C 12.34375 -10.859375 12.238281 -11.328125 12.03125 -11.703125 C 11.601562 -12.503906 10.878906 -12.90625 9.859375 -12.90625 C 8.867188 -12.90625 7.925781 -12.46875 7.03125 -11.59375 C 6.132812 -10.726562 5.414062 -9.601562 4.875 -8.21875 C 4.34375 -6.832031 4.078125 -5.410156 4.078125 -3.953125 C 4.078125 -2.734375 4.296875 -1.816406 4.734375 -1.203125 C 5.171875 -0.597656 5.785156 -0.296875 6.578125 -0.296875 C 7.046875 -0.296875 7.53125 -0.398438 8.03125 -0.609375 C 8.539062 -0.828125 8.984375 -1.128906 9.359375 -1.515625 C 9.671875 -1.859375 9.945312 -2.242188 10.1875 -2.671875 C 10.425781 -3.097656 10.703125 -3.6875 11.015625 -4.4375 L 11.421875 -4.4375 C 10.835938 -2.300781 10.472656 -0.820312 10.328125 0 L 9.921875 0 C 9.960938 -0.257812 9.984375 -0.46875 9.984375 -0.625 C 9.984375 -0.945312 9.898438 -1.109375 9.734375 -1.109375 C 9.640625 -1.109375 9.519531 -1.050781 9.375 -0.9375 C 8.800781 -0.5625 8.234375 -0.265625 7.671875 -0.046875 C 7.109375 0.160156 6.46875 0.265625 5.75 0.265625 C 4.09375 0.265625 2.851562 -0.128906 2.03125 -0.921875 C 1.207031 -1.710938 0.796875 -2.847656 0.796875 -4.328125 C 0.796875 -5.773438 1.179688 -7.195312 1.953125 -8.59375 C 2.722656 -10 3.785156 -11.140625 5.140625 -12.015625 C 6.492188 -12.898438 7.988281 -13.34375 9.625 -13.34375 C 10.320312 -13.34375 10.867188 -13.238281 11.265625 -13.03125 C 11.660156 -12.820312 12.035156 -12.523438 12.390625 -12.140625 C 12.484375 -12.035156 12.570312 -11.984375 12.65625 -11.984375 C 12.882812 -11.984375 13.132812 -12.351562 13.40625 -13.09375 Z M 13.796875 -13.09375 "/></g></g></g><g fill="#ffffff" fill-opacity="1"><g transform="translate(31.665706, 46.037033)"><g><path d="M 11.890625 -10.0625 C 12.085938 -10.78125 12.1875 -11.300781 12.1875 -11.625 C 12.1875 -11.976562 12.078125 -12.234375 11.859375 -12.390625 C 11.648438 -12.546875 11.289062 -12.65625 10.78125 -12.71875 L 10.875 -13.09375 C 11.320312 -13.050781 11.976562 -13.03125 12.84375 -13.03125 C 13.519531 -13.03125 14.0625 -13.050781 14.46875 -13.09375 L 14.375 -12.71875 C 13.957031 -12.65625 13.628906 -12.550781 13.390625 -12.40625 C 13.160156 -12.257812 12.96875 -12.023438 12.8125 -11.703125 C 12.664062 -11.378906 12.507812 -10.90625 12.34375 -10.28125 L 11.09375 -5.375 C 10.644531 -3.675781 10.039062 -2.367188 9.28125 -1.453125 C 8.820312 -0.929688 8.265625 -0.515625 7.609375 -0.203125 C 6.953125 0.109375 6.242188 0.265625 5.484375 0.265625 C 4.585938 0.265625 3.835938 0.140625 3.234375 -0.109375 C 2.628906 -0.367188 2.179688 -0.734375 1.890625 -1.203125 C 1.554688 -1.679688 1.390625 -2.253906 1.390625 -2.921875 C 1.390625 -3.515625 1.523438 -4.316406 1.796875 -5.328125 L 3.328125 -11.125 C 3.421875 -11.539062 3.46875 -11.835938 3.46875 -12.015625 C 3.46875 -12.285156 3.378906 -12.460938 3.203125 -12.546875 C 3.023438 -12.640625 2.703125 -12.695312 2.234375 -12.71875 L 2.34375 -13.09375 C 2.976562 -13.050781 3.992188 -13.03125 5.390625 -13.03125 C 6.535156 -13.03125 7.492188 -13.050781 8.265625 -13.09375 L 8.15625 -12.71875 C 7.695312 -12.695312 7.359375 -12.644531 7.140625 -12.5625 C 6.929688 -12.488281 6.757812 -12.347656 6.625 -12.140625 C 6.5 -11.929688 6.375 -11.59375 6.25 -11.125 L 4.625 -5.015625 C 4.320312 -3.921875 4.171875 -3.019531 4.171875 -2.3125 C 4.171875 -1.664062 4.304688 -1.179688 4.578125 -0.859375 C 4.847656 -0.546875 5.269531 -0.390625 5.84375 -0.390625 C 7.132812 -0.390625 8.148438 -0.804688 8.890625 -1.640625 C 9.640625 -2.484375 10.210938 -3.660156 10.609375 -5.171875 Z M 11.890625 -10.0625 "/></g></g></g><g fill="#ffffff" fill-opacity="1"><g transform="translate(44.494688, 46.037033)"><g><path d="M 10.390625 -3.875 C 10.265625 -3.539062 10.113281 -3.035156 9.9375 -2.359375 C 9.75 -1.671875 9.585938 -0.882812 9.453125 0 C 8.609375 -0.0390625 7.207031 -0.0625 5.25 -0.0625 C 2.5625 -0.0625 0.546875 -0.0390625 -0.796875 0 L -0.703125 -0.375 C -0.253906 -0.394531 0.0703125 -0.441406 0.28125 -0.515625 C 0.5 -0.585938 0.675781 -0.726562 0.8125 -0.9375 C 0.945312 -1.144531 1.078125 -1.484375 1.203125 -1.953125 L 3.640625 -11.125 C 3.742188 -11.539062 3.796875 -11.835938 3.796875 -12.015625 C 3.796875 -12.285156 3.703125 -12.460938 3.515625 -12.546875 C 3.335938 -12.640625 3.015625 -12.695312 2.546875 -12.71875 L 2.640625 -13.09375 C 3.296875 -13.050781 4.3125 -13.03125 5.6875 -13.03125 C 6.851562 -13.03125 7.816406 -13.050781 8.578125 -13.09375 L 8.484375 -12.71875 C 8.023438 -12.695312 7.6875 -12.644531 7.46875 -12.5625 C 7.257812 -12.488281 7.085938 -12.347656 6.953125 -12.140625 C 6.816406 -11.929688 6.6875 -11.59375 6.5625 -11.125 L 4.125 -1.953125 C 4.007812 -1.484375 3.953125 -1.179688 3.953125 -1.046875 C 3.953125 -0.796875 4.039062 -0.628906 4.21875 -0.546875 C 4.394531 -0.460938 4.71875 -0.421875 5.1875 -0.421875 L 5.9375 -0.421875 C 6.8125 -0.421875 7.578125 -0.6875 8.234375 -1.21875 C 8.898438 -1.757812 9.484375 -2.644531 9.984375 -3.875 Z M 10.390625 -3.875 "/></g></g></g><g fill="#ffffff" fill-opacity="1"><g transform="translate(55.678453, 46.037033)"><g><path d="M 4.140625 -1.953125 C 4.023438 -1.484375 3.96875 -1.179688 3.96875 -1.046875 C 3.96875 -0.796875 4.054688 -0.625 4.234375 -0.53125 C 4.421875 -0.445312 4.753906 -0.394531 5.234375 -0.375 L 5.15625 0 C 4.4375 -0.0390625 3.429688 -0.0625 2.140625 -0.0625 C 0.847656 -0.0625 -0.117188 -0.0390625 -0.765625 0 L -0.671875 -0.375 C -0.234375 -0.394531 0.0859375 -0.441406 0.296875 -0.515625 C 0.515625 -0.585938 0.6875 -0.734375 0.8125 -0.953125 C 0.945312 -1.171875 1.078125 -1.503906 1.203125 -1.953125 L 3.640625 -11.125 C 3.742188 -11.539062 3.796875 -11.835938 3.796875 -12.015625 C 3.796875 -12.285156 3.703125 -12.460938 3.515625 -12.546875 C 3.335938 -12.640625 3.015625 -12.695312 2.546875 -12.71875 L 2.640625 -13.09375 C 3.242188 -13.050781 4.210938 -13.03125 5.546875 -13.03125 C 6.765625 -13.03125 7.773438 -13.050781 8.578125 -13.09375 L 8.484375 -12.71875 C 8.023438 -12.695312 7.6875 -12.644531 7.46875 -12.5625 C 7.257812 -12.488281 7.085938 -12.347656 6.953125 -12.140625 C 6.828125 -11.929688 6.703125 -11.59375 6.578125 -11.125 Z M 4.140625 -1.953125 "/></g></g></g><g fill="#ffffff" fill-opacity="1"><g transform="translate(62.887823, 46.037033)"><g><path d="M 15.484375 -13.9375 C 16.023438 -13.9375 16.453125 -13.785156 16.765625 -13.484375 C 17.085938 -13.191406 17.25 -12.816406 17.25 -12.359375 C 17.25 -11.878906 17.085938 -11.476562 16.765625 -11.15625 C 16.441406 -10.84375 16.039062 -10.6875 15.5625 -10.6875 C 15.15625 -10.6875 14.835938 -10.785156 14.609375 -10.984375 C 14.390625 -11.191406 14.28125 -11.460938 14.28125 -11.796875 C 14.28125 -12.203125 14.410156 -12.554688 14.671875 -12.859375 C 14.929688 -13.171875 15.265625 -13.390625 15.671875 -13.515625 C 15.617188 -13.566406 15.519531 -13.59375 15.375 -13.59375 C 14.78125 -13.59375 14.265625 -13.265625 13.828125 -12.609375 C 13.285156 -11.796875 12.71875 -10.363281 12.125 -8.3125 C 11.53125 -6.257812 10.859375 -3.457031 10.109375 0.09375 L 9.703125 0.09375 L 5.125 -9.9375 C 4.59375 -7.332031 4.085938 -5.132812 3.609375 -3.34375 C 3.140625 -1.5625 2.679688 -0.378906 2.234375 0.203125 C 1.960938 0.554688 1.675781 0.835938 1.375 1.046875 C 1.070312 1.265625 0.703125 1.375 0.265625 1.375 C -0.273438 1.375 -0.703125 1.222656 -1.015625 0.921875 C -1.328125 0.628906 -1.484375 0.253906 -1.484375 -0.203125 C -1.484375 -0.679688 -1.320312 -1.082031 -1 -1.40625 C -0.6875 -1.726562 -0.285156 -1.890625 0.203125 -1.890625 C 0.597656 -1.890625 0.910156 -1.785156 1.140625 -1.578125 C 1.367188 -1.378906 1.484375 -1.113281 1.484375 -0.78125 C 1.484375 -0.375 1.347656 -0.015625 1.078125 0.296875 C 0.816406 0.609375 0.484375 0.820312 0.078125 0.9375 C 0.140625 0.988281 0.242188 1.015625 0.390625 1.015625 C 1.015625 1.015625 1.53125 0.679688 1.9375 0.015625 C 2.394531 -0.710938 2.867188 -2.007812 3.359375 -3.875 C 3.859375 -5.75 4.394531 -8.164062 4.96875 -11.125 C 5.039062 -11.476562 5.078125 -11.753906 5.078125 -11.953125 C 5.078125 -12.253906 4.976562 -12.453125 4.78125 -12.546875 C 4.582031 -12.640625 4.207031 -12.695312 3.65625 -12.71875 L 3.75 -13.09375 C 4.144531 -13.050781 4.691406 -13.03125 5.390625 -13.03125 C 5.960938 -13.03125 6.460938 -13.050781 6.890625 -13.09375 L 10.71875 -4.328125 C 11.757812 -8.753906 12.6875 -11.5625 13.5 -12.75 C 14.039062 -13.539062 14.703125 -13.9375 15.484375 -13.9375 Z M 15.484375 -13.9375 "/></g></g></g><g fill="#ffffff" fill-opacity="1"><g transform="translate(78.138415, 46.037033)"><g><path d="M 9.859375 -1.546875 C 9.890625 -1.140625 9.988281 -0.84375 10.15625 -0.65625 C 10.332031 -0.476562 10.535156 -0.382812 10.765625 -0.375 L 10.6875 0 C 10.050781 -0.0390625 9.15625 -0.0625 8 -0.0625 C 6.75 -0.0625 5.828125 -0.0390625 5.234375 0 L 5.3125 -0.375 C 5.726562 -0.394531 6.050781 -0.441406 6.28125 -0.515625 C 6.519531 -0.597656 6.6875 -0.75 6.78125 -0.96875 C 6.882812 -1.1875 6.921875 -1.503906 6.890625 -1.921875 L 6.734375 -4.953125 L 2.734375 -4.953125 L 1.109375 -2.640625 C 0.710938 -2.085938 0.515625 -1.632812 0.515625 -1.28125 C 0.515625 -0.976562 0.644531 -0.753906 0.90625 -0.609375 C 1.175781 -0.472656 1.5625 -0.394531 2.0625 -0.375 L 1.984375 0 C 0.941406 -0.0390625 0.140625 -0.0625 -0.421875 -0.0625 C -0.878906 -0.0625 -1.304688 -0.0390625 -1.703125 0 L -1.625 -0.375 C -1.300781 -0.457031 -0.988281 -0.640625 -0.6875 -0.921875 C -0.382812 -1.203125 0 -1.671875 0.46875 -2.328125 L 8.171875 -13.171875 C 8.285156 -13.160156 8.445312 -13.15625 8.65625 -13.15625 C 8.875 -13.15625 9.023438 -13.160156 9.109375 -13.171875 Z M 6.703125 -5.328125 L 6.46875 -10.21875 L 3 -5.328125 Z M 6.703125 -5.328125 "/></g></g></g><g fill="#ffffff" fill-opacity="1"><g transform="translate(90.209485, 46.037033)"><g><path d="M 12.109375 -2.234375 L 12.53125 -2.234375 L 12.453125 -2 C 12.222656 -1.21875 11.882812 -0.644531 11.4375 -0.28125 C 11 0.0820312 10.394531 0.265625 9.625 0.265625 C 8.875 0.265625 8.3125 0.101562 7.9375 -0.21875 C 7.5625 -0.539062 7.375 -0.976562 7.375 -1.53125 C 7.375 -1.695312 7.378906 -1.816406 7.390625 -1.890625 L 7.671875 -4 C 7.691406 -4.289062 7.703125 -4.492188 7.703125 -4.609375 C 7.703125 -5.171875 7.523438 -5.582031 7.171875 -5.84375 C 6.828125 -6.113281 6.195312 -6.257812 5.28125 -6.28125 L 4.140625 -1.953125 C 4.015625 -1.523438 3.953125 -1.222656 3.953125 -1.046875 C 3.953125 -0.816406 4.046875 -0.648438 4.234375 -0.546875 C 4.421875 -0.441406 4.75 -0.382812 5.21875 -0.375 L 5.140625 0 C 4.398438 -0.0390625 3.4375 -0.0625 2.25 -0.0625 C 0.882812 -0.0625 -0.125 -0.0390625 -0.78125 0 L -0.703125 -0.375 C -0.253906 -0.394531 0.078125 -0.441406 0.296875 -0.515625 C 0.515625 -0.585938 0.6875 -0.726562 0.8125 -0.9375 C 0.945312 -1.144531 1.078125 -1.484375 1.203125 -1.953125 L 3.625 -11.125 C 3.738281 -11.570312 3.796875 -11.863281 3.796875 -12 C 3.796875 -12.238281 3.703125 -12.414062 3.515625 -12.53125 C 3.335938 -12.644531 3.015625 -12.707031 2.546875 -12.71875 L 2.640625 -13.09375 C 3.273438 -13.050781 4.207031 -13.03125 5.4375 -13.03125 L 7.03125 -13.046875 C 7.3125 -13.054688 7.703125 -13.0625 8.203125 -13.0625 C 9.710938 -13.0625 10.828125 -12.851562 11.546875 -12.4375 C 12.265625 -12.019531 12.625 -11.375 12.625 -10.5 C 12.625 -9.414062 12.132812 -8.503906 11.15625 -7.765625 C 10.175781 -7.035156 8.851562 -6.578125 7.1875 -6.390625 C 8.3125 -6.285156 9.160156 -6.082031 9.734375 -5.78125 C 10.316406 -5.488281 10.609375 -4.976562 10.609375 -4.25 C 10.609375 -4.175781 10.597656 -4.039062 10.578125 -3.84375 L 10.3125 -1.9375 C 10.300781 -1.84375 10.296875 -1.707031 10.296875 -1.53125 C 10.296875 -0.9375 10.492188 -0.640625 10.890625 -0.640625 C 11.117188 -0.640625 11.316406 -0.75 11.484375 -0.96875 C 11.660156 -1.1875 11.835938 -1.523438 12.015625 -1.984375 Z M 5.359375 -6.625 L 5.515625 -6.625 C 6.753906 -6.625 7.753906 -6.988281 8.515625 -7.71875 C 9.273438 -8.445312 9.65625 -9.46875 9.65625 -10.78125 C 9.65625 -11.445312 9.507812 -11.9375 9.21875 -12.25 C 8.9375 -12.5625 8.507812 -12.71875 7.9375 -12.71875 C 7.5625 -12.71875 7.285156 -12.632812 7.109375 -12.46875 C 6.929688 -12.300781 6.78125 -11.976562 6.65625 -11.5 Z M 5.359375 -6.625 "/></g></g></g><g fill="#ffffff" fill-opacity="1"><g transform="translate(103.352721, 46.037033)"><g><path d="M 4.140625 -1.953125 C 4.023438 -1.484375 3.96875 -1.179688 3.96875 -1.046875 C 3.96875 -0.796875 4.054688 -0.625 4.234375 -0.53125 C 4.421875 -0.445312 4.753906 -0.394531 5.234375 -0.375 L 5.15625 0 C 4.4375 -0.0390625 3.429688 -0.0625 2.140625 -0.0625 C 0.847656 -0.0625 -0.117188 -0.0390625 -0.765625 0 L -0.671875 -0.375 C -0.234375 -0.394531 0.0859375 -0.441406 0.296875 -0.515625 C 0.515625 -0.585938 0.6875 -0.734375 0.8125 -0.953125 C 0.945312 -1.171875 1.078125 -1.503906 1.203125 -1.953125 L 3.640625 -11.125 C 3.742188 -11.539062 3.796875 -11.835938 3.796875 -12.015625 C 3.796875 -12.285156 3.703125 -12.460938 3.515625 -12.546875 C 3.335938 -12.640625 3.015625 -12.695312 2.546875 -12.71875 L 2.640625 -13.09375 C 3.242188 -13.050781 4.210938 -13.03125 5.546875 -13.03125 C 6.765625 -13.03125 7.773438 -13.050781 8.578125 -13.09375 L 8.484375 -12.71875 C 8.023438 -12.695312 7.6875 -12.644531 7.46875 -12.5625 C 7.257812 -12.488281 7.085938 -12.347656 6.953125 -12.140625 C 6.828125 -11.929688 6.703125 -11.59375 6.578125 -11.125 Z M 4.140625 -1.953125 "/></g></g></g><g fill="#ffffff" fill-opacity="1"><g transform="translate(110.562091, 46.037033)"><g><path d="M 0.78125 -4.171875 C 0.78125 -5.566406 1.132812 -6.976562 1.84375 -8.40625 C 2.550781 -9.832031 3.546875 -11.007812 4.828125 -11.9375 C 6.109375 -12.875 7.550781 -13.34375 9.15625 -13.34375 C 10.726562 -13.34375 11.957031 -12.953125 12.84375 -12.171875 C 13.726562 -11.398438 14.171875 -10.304688 14.171875 -8.890625 C 14.171875 -7.492188 13.8125 -6.082031 13.09375 -4.65625 C 12.382812 -3.238281 11.390625 -2.0625 10.109375 -1.125 C 8.828125 -0.195312 7.382812 0.265625 5.78125 0.265625 C 4.207031 0.265625 2.976562 -0.117188 2.09375 -0.890625 C 1.21875 -1.671875 0.78125 -2.765625 0.78125 -4.171875 Z M 8.984375 -13.015625 C 8.140625 -13.015625 7.328125 -12.566406 6.546875 -11.671875 C 5.773438 -10.785156 5.148438 -9.640625 4.671875 -8.234375 C 4.191406 -6.835938 3.953125 -5.40625 3.953125 -3.9375 C 3.953125 -2.738281 4.132812 -1.796875 4.5 -1.109375 C 4.875 -0.421875 5.359375 -0.078125 5.953125 -0.078125 C 6.785156 -0.078125 7.585938 -0.519531 8.359375 -1.40625 C 9.140625 -2.289062 9.769531 -3.4375 10.25 -4.84375 C 10.738281 -6.25 10.984375 -7.6875 10.984375 -9.15625 C 10.984375 -10.34375 10.796875 -11.28125 10.421875 -11.96875 C 10.054688 -12.664062 9.578125 -13.015625 8.984375 -13.015625 Z M 8.984375 -13.015625 "/></g></g></g></svg>